<svg id="圖層_6" data-name="圖層 6" xmlns="http://www.w3.org/2000/svg" viewBox="0 0 601 693"><defs><style>.cls-1{fill:#39b54a;}.cls-2{fill:#009245;}.cls-3{fill:#a67c52;}.cls-4{fill:#754c24;}.cls-5{fill:#006837;}</style></defs><title>layer_6</title><polyline class="cls-1" points="282 0 0 531.58 282 639.03"/><polyline class="cls-2" points="282 639 282 0 601 535.58"/><polygon class="cls-3" points="282 693 282 639 206 610.08 206 663.8 282 693"/><polygon class="cls-4" points="282 693 282 639 356 615 356 669 282 693"/><polygon class="cls-5" points="282 497.43 530.1 416.54 556.04 460.09 282 549.43 282 497.43"/><polygon class="cls-5" points="282 386.74 474.89 323.86 500.83 367.4 282 438.74 282 386.74"/><polygon class="cls-5" points="282 276.06 419.69 231.17 445.62 274.71 282 328.06 282 276.06"/><polygon class="cls-5" points="282 165.37 364.48 138.48 390.42 182.03 282 217.37 282 165.37"/></svg>