<svg id="圖層_8" data-name="圖層 8" xmlns="http://www.w3.org/2000/svg" viewBox="0 0 121.75 188.49"><defs><style>.cls-1{fill:#4d4d4d;}.cls-2{fill:lime;}.cls-3{fill:gray;}.cls-4{fill:#999;}.cls-5{fill:#b3b3b3;}</style></defs><title>layer_8</title><polygon class="cls-1" points="88.25 34.04 8.25 62.66 8.25 32.79 88.25 4.17 88.25 34.04"/><polygon class="cls-1" points="114.25 13.87 74.25 28.18 74.25 20.18 114.25 5.87 114.25 13.87"/><polygon class="cls-1" points="121.75 185.63 113.75 188.49 113.75 6.04 121.75 3.18 121.75 185.63"/><ellipse cx="991.9" cy="79.95" rx="10.75" ry="7.53" transform="translate(-649.7 742.72) rotate(-50.07)"/><ellipse cx="967.9" cy="88.6" rx="10.75" ry="7.53" transform="translate(-664.93 727.42) rotate(-50.07)"/><ellipse class="cls-2" cx="1016.11" cy="71.35" rx="10.75" ry="7.53" transform="translate(-634.43 758.21) rotate(-50.07)"/><polygon class="cls-3" points="105.57 185.25 105.57 16.97 113.75 14.04 113.75 188.49 105.57 185.25"/><polygon class="cls-4" points="88.25 8.81 88.25 15.17 121.75 3.18 113.5 0 88.25 8.81"/><polygon class="cls-4" points="80 0.98 0 29.58 8.25 32.76 88.25 4.17 80 0.98"/><polygon class="cls-5" points="0 29.58 8.25 32.76 8.25 62.66 0 59.48 0 29.58"/></svg>