<svg id="圖層_3" data-name="圖層 3" xmlns="http://www.w3.org/2000/svg" viewBox="0 0 453.18 550.16"><defs><style>.cls-1{fill:#4d4d4d;}.cls-2{fill:#c69c6d;}.cls-3{fill:#a67c52;}.cls-4{fill:#754c24;}.cls-5{fill:#42210b;}.cls-6{fill:#603813;}.cls-7{fill:#8c6239;}.cls-10,.cls-8{fill:#e0a600;}.cls-9{fill:none;}.cls-10{font-size:20.49px;font-family:TpldKhangXiDict-B5pc-H, TypeLand.com KhangXi Dict;}</style></defs><title>Home_map</title><polygon class="cls-1" points="77.58 481.39 165.75 454.94 349.14 523.71 261.85 550.16 77.58 481.39"/><polygon class="cls-2" points="349.14 398.52 165.75 329.75 165.75 454.94 349.14 523.71 349.14 398.52"/><polygon class="cls-3" points="261.85 129 261.85 550.16 242.6 542.98 242.6 421.44 94.48 366.78 94.48 487.7 77.58 481.39 77.58 59.95 261.85 129"/><polygon class="cls-4" points="111.09 372.9 111.09 483.16 94.48 487.7 94.48 366.78 111.09 372.9"/><polygon class="cls-3" points="261.85 129 453.18 68.77 268.02 0 77.58 59.95 261.85 129"/><path class="cls-3" d="M1265.25,1094.67" transform="translate(-1000.75 -969.47)"/><polygon class="cls-2" points="148.12 324.45 137.54 327.98 137.54 285.66 148.12 282.13 148.12 324.45"/><polygon class="cls-4" points="148.12 282.13 148.12 324.45 195.73 342.09 195.73 299.77 148.12 282.13"/><polygon class="cls-5" points="185.15 303.3 195.73 299.77 148.12 282.13 137.54 285.66 185.15 303.3"/><polygon class="cls-2" points="153.41 352.67 153.41 326.22 142.83 329.75 153.41 352.67"/><polygon class="cls-2" points="186.91 365.01 186.91 338.56 176.33 342.09 186.91 365.01"/><polygon class="cls-6" points="148.12 324.45 195.73 342.09 185.15 345.62 137.54 327.98 148.12 324.45"/><polygon class="cls-7" points="185.15 345.62 195.73 342.09 195.73 299.77 185.15 303.3 185.15 345.62"/><polygon class="cls-7" points="261.85 399.94 261.85 129 77.58 59.95 77.58 329.75 261.85 399.94"/><polygon class="cls-8" points="153.41 130.49 102.27 111.09 102.27 176.33 153.41 195.73 153.41 130.49"/><polyline class="cls-8" points="183.38 206.31 234.52 225.71 234.52 162.23 183.38 142.83 183.38 208.07"/><polygon class="cls-8" points="183.38 322.69 234.52 342.09 234.52 278.61 183.38 259.21 183.38 294.48 183.38 322.69"/><polygon class="cls-8" points="153.41 246.87 102.27 227.47 102.27 290.95 153.41 312.11 153.41 246.87"/><polygon class="cls-7" points="274.1 495.58 322.27 513.64 322.27 423.68 274.1 406.02 274.1 495.58"/><polygon class="cls-4" points="261.85 550.16 261.85 129 453.18 68.77 453.18 490.21 349.14 523.71 349.14 398.52 349.14 398.52 280.66 421.44 280.66 544.47 261.85 550.16"/><polygon class="cls-8" points="261.85 241.86 453.18 181.62 453.18 151.65 261.85 209.5 261.85 241.86"/><polygon class="cls-8" points="261.85 301.81 453.18 241.58 453.18 211.6 261.85 271.83 261.85 301.81"/><polygon class="cls-8" points="261.85 361.76 453.18 301.53 453.18 271.56 261.85 331.79 261.85 361.76"/><polygon class="cls-8" points="349.14 424.21 349.14 453.18 349.14 454.19 453.18 421.44 453.18 391.46 349.14 424.21"/><polygon class="cls-8" points="280.66 446.04 261.85 451.68 261.85 481.67 280.66 475.75 280.66 446.04"/><polygon class="cls-8" points="261.85 421.72 453.18 361.49 453.18 331.51 261.85 391.74 261.85 421.72"/><polygon class="cls-7" points="0 374.71 0 291.83 77.59 265.38 77.59 348.26 0 374.71"/><polygon class="cls-9" points="0 374.71 77.59 348.26 93.46 353.55 15.87 380 0 374.71"/><polygon class="cls-2" points="15.87 380 0 374.71 0 291.83 15.87 297.12 15.87 380"/><polygon class="cls-9" points="93.46 353.55 77.59 348.26 77.59 265.38 93.46 270.67 93.46 353.55"/><polygon class="cls-3" points="77.59 265.38 0 291.83 15.87 297.12 93.46 270.67 77.59 265.38"/><polygon class="cls-1" points="77.59 481.67 0 508.12 15.87 513.41 93.46 486.96 77.59 481.67"/><polygon class="cls-4" points="15.87 297.12 15.87 380 93.46 353.55 93.46 270.67 15.87 297.12"/><text class="cls-10" transform="matrix(1.07, -0.35, 0, 1, 23.38, 343.27)">湯食家</text></svg>