<svg id="圖層_4" data-name="圖層 4" xmlns="http://www.w3.org/2000/svg" viewBox="0 0 212.37 166.65"><defs><style>.cls-1{fill:#4d4d4d;}.cls-2{fill:#42210b;}.cls-3{fill:#29abe2;}.cls-4{fill:#8c6239;}.cls-5{fill:#c69c6d;}.cls-6{fill:#754c24;}.cls-7{fill:#a67c52;}.cls-8{fill:#f2f2f2;}.cls-9{fill:#fff;}.cls-10{fill:#e0a600;}.cls-11{opacity:0.2;}</style></defs><title>layer_4</title><polygon class="cls-1" points="129.25 166.65 0 118.22 83.44 91.81 212.37 139.81 129.25 166.65"/><path class="cls-2" d="M1877.58,574.19c-3.25-1.44-6.55-.22-9.12,2.73-5.81-2.1-11.69,4.06-13,13.43-1.35,9.64,2.79,18.7,8.61,21.65a6.58,6.58,0,0,0,3.49.75c2.11-.15,8.84-2.76,10.29-3.26,4.05-1.4,7.38-6.78,8.34-13.65C1887.54,586.2,1883.86,577,1877.58,574.19Z" transform="translate(-1769.9 -458.55)"/><path class="cls-2" d="M1806.25,547.61c-3.25-1.44-6.56-.22-9.12,2.73-5.81-2.11-11.69,4-13,13.43-1.35,9.64,2.79,18.69,8.61,21.65a6.68,6.68,0,0,0,3.49.75c2.11-.15,8.84-2.77,10.28-3.26,4.06-1.4,7.39-6.78,8.35-13.65C1816.21,559.62,1812.53,550.4,1806.25,547.61Z" transform="translate(-1769.9 -458.55)"/><polygon class="cls-3" points="0 99.59 0 73.55 83.12 46.83 83.12 72.88 0 99.59"/><polygon class="cls-4" points="129.25 121.97 0 73.55 83.44 47.13 212.37 95.14 129.25 121.97"/><polyline class="cls-5" points="129.25 121.97 111 54.27 37.01 26.72 21.47 81.59 129.25 121.97"/><polygon class="cls-6" points="212.37 95.14 129.25 121.97 111 54.27 193.86 27.55 212.37 95.14"/><polygon class="cls-5" points="129.25 121.97 212.37 95.14 212.37 121 129.25 147.72 129.25 121.97"/><polygon class="cls-6" points="129.25 147.72 212.37 120.88 212.37 115.63 129.25 142.35 129.25 147.72"/><polygon class="cls-7" points="111 54.27 37.01 26.72 119.43 0 193.86 27.55 111 54.27"/><polygon class="cls-8" points="41.56 35.24 29.61 78.38 63.91 91.14 63.91 43.51 41.56 35.24"/><polygon class="cls-2" points="37.33 50.5 29.61 78.38 63.91 91.14 63.91 60.33 37.33 50.5"/><polygon class="cls-9" points="70.55 45.68 70.55 93.34 118.15 111.08 103.85 58.02 70.55 45.68"/><polygon class="cls-2" points="70.55 71.11 70.55 93.34 118.15 111.08 111.5 86.4 70.55 71.11"/><polygon class="cls-9" points="184.32 43.62 191.28 69.28 134.84 87.48 127.88 61.82 184.32 43.62"/><polygon class="cls-10" points="184.32 43.62 187.81 56.48 131.37 74.68 127.88 61.82 184.32 43.62"/><polygon class="cls-9" points="169.14 81 170.39 85.62 160.21 88.91 158.96 84.28 169.14 81"/><polygon class="cls-10" points="146.03 132.53 146.03 127.7 129.25 133.29 129.25 138 146.03 132.53"/><polygon class="cls-6" points="191.53 119.03 191.53 108.04 152.88 120.52 152.88 131.65 191.53 119.03"/><polygon class="cls-10" points="212.37 110.84 212.37 106.01 195.58 111.61 195.58 116.32 212.37 110.84"/><path class="cls-11" d="M1806.21,547.73c-3.25-1.44-6.56-.23-9.12,2.72.17.06.33.1.49.17,6.29,2.78,10,12,8.61,21.65-1,7.13-4.54,12.66-8.8,13.8,2.77-.66,7.85-2.63,9.08-3.05,4.06-1.4,7.39-6.78,8.35-13.65C1816.17,559.73,1812.49,550.51,1806.21,547.73Z" transform="translate(-1769.9 -458.55)"/><path class="cls-11" d="M1877.54,574.31c-3.25-1.44-6.55-.23-9.11,2.72.16.06.32.1.49.17,6.28,2.79,10,12,8.61,21.65-1,7.13-4.55,12.66-8.81,13.8,2.78-.66,7.85-2.62,9.09-3,4-1.39,7.38-6.77,8.34-13.65C1887.5,586.32,1883.82,577.09,1877.54,574.31Z" transform="translate(-1769.9 -458.55)"/><polygon class="cls-7" points="0 99.59 129.25 147.72 129.25 121.97 128.84 121.82 0 73.55 0 99.59"/><path class="cls-2" d="M1877.57,598.31c-1.35,9.64-7.36,16.38-13.5,13.27-5.82-3-10-12-8.61-21.65S1863,574,1869,576.67C1875.24,579.45,1878.92,588.67,1877.57,598.31Z" transform="translate(-1769.9 -458.55)"/><path class="cls-2" d="M1806.23,571.73c-1.34,9.64-7.35,16.38-13.49,13.26-5.82-3-10-12-8.61-21.64s7.52-15.91,13.49-13.27C1803.91,552.87,1807.58,562.09,1806.23,571.73Z" transform="translate(-1769.9 -458.55)"/><path class="cls-9" d="M1800.44,569.57c-.64,4.59-3.49,7.79-6.41,6.31-2.77-1.4-4.74-5.71-4.1-10.29s3.58-7.57,6.42-6.31C1799.34,560.6,1801.09,565,1800.44,569.57Z" transform="translate(-1769.9 -458.55)"/><path class="cls-9" d="M1872,596.25c-.68,4.82-3.67,8.18-6.74,6.63-2.91-1.48-5-6-4.3-10.81s3.76-7.94,6.74-6.62C1870.88,586.84,1872.71,591.44,1872,596.25Z" transform="translate(-1769.9 -458.55)"/><path class="cls-5" d="M1938.18,578.89a4.77,4.77,0,0,0-.08-1.18c-.1-.46-.29-.68-.52-.6a1.49,1.49,0,0,0-.62,1,11.88,11.88,0,0,0-.41,2.34c-.17,1.92,0,3,.56,2.81.26-.09.54-.5.77-1.14.08-.22.13-.42.22-.76l.09.1c-.31,1.3-.7,2-1.23,2.21-.34.12-.63-.06-.8-.51a5.94,5.94,0,0,1-.13-2.37c.19-2.09.8-3.62,1.56-3.88.18-.07.26-.06.56,0a.19.19,0,0,0,.15,0s.08,0,.2-.18l-.2,2.11Z" transform="translate(-1769.9 -458.55)"/><path class="cls-5" d="M1939.15,581.62c-.07.8-.05.87.24.79l0,.23-1.1.39,0-.23c.29-.13.33-.22.4-1l.39-4.25c.07-.78.05-.85-.22-.78l0-.23,1.07-.38,0,.23c-.28.12-.32.22-.39,1l-.16,1.78,1.17-.42.16-1.78c.08-.78.06-.86-.22-.78l0-.23,1.07-.38,0,.22c-.28.13-.31.23-.39,1l-.38,4.24c-.08.8-.06.87.23.79l0,.23-1.1.39,0-.23c.3-.13.33-.22.41-1l.2-2.17-1.18.41Z" transform="translate(-1769.9 -458.55)"/><path class="cls-5" d="M1942.68,580.37c-.07.8,0,.87.28.77l0,.22-1.2.43,0-.23c.34-.13.38-.23.45-1l.47-5.13a1.13,1.13,0,0,0-.65.71,8.91,8.91,0,0,0-.35,1.57l-.12,0,.27-2.23,2.22-.79-.13,2.18-.13.06a4.44,4.44,0,0,0-.1-1.47c-.1-.25-.25-.32-.54-.23Z" transform="translate(-1769.9 -458.55)"/><path class="cls-5" d="M1944,578.17l.83-.29-.07.73-.83.29Z" transform="translate(-1769.9 -458.55)"/><path class="cls-5" d="M1946.5,579c-.07.72,0,.83.24.74l0,.24-1.07.38,0-.23c.17-.08.21-.11.26-.21a2.58,2.58,0,0,0,.14-.77l.06-.61-1.14.4,0-.41,1.64-4.76.33-.11-.4,4.33.38-.13,0,.39-.38.13Zm0-4.29-1.3,3.79,1-.35Z" transform="translate(-1769.9 -458.55)"/><path class="cls-5" d="M1949.11,577.54c-.11,1.11-.54,2-1.12,2.16s-.82-.29-.73-1.29a3.84,3.84,0,0,1,.37-1.37,3.06,3.06,0,0,1,.36-.52,1.61,1.61,0,0,1-.36-1.43c.1-1.05.49-1.86,1-2s.75.33.67,1.23a2.64,2.64,0,0,1-.66,1.62C1949.05,576.22,1949.18,576.71,1949.11,577.54Zm-1.26-.46a4.49,4.49,0,0,0-.24,1.1c-.08.9.09,1.41.43,1.29s.57-.7.63-1.44a1.51,1.51,0,0,0-.15-1,1.62,1.62,0,0,0-.29-.33l-.14-.11A1.69,1.69,0,0,0,1947.85,577.08Zm.92-1.69a4,4,0,0,0,.2-1,3.13,3.13,0,0,0,0-.76c0-.29-.18-.43-.36-.36s-.49.58-.55,1.25a1.41,1.41,0,0,0,.16,1,2,2,0,0,0,.21.22l.14.11A1.32,1.32,0,0,0,1948.77,575.39Z" transform="translate(-1769.9 -458.55)"/><path class="cls-5" d="M1951.28,576.77a2.46,2.46,0,0,1-1.11,2.16c-.55.19-.83-.3-.74-1.29a3.6,3.6,0,0,1,.38-1.37,2.64,2.64,0,0,1,.35-.52,1.62,1.62,0,0,1-.36-1.43c.1-1.06.5-1.86,1-2.05s.74.33.66,1.24a2.56,2.56,0,0,1-.66,1.61A1.74,1.74,0,0,1,1951.28,576.77Zm-1.26-.46a4.29,4.29,0,0,0-.24,1.1c-.08.89.1,1.4.43,1.28s.57-.69.63-1.43a1.5,1.5,0,0,0-.15-1,1.59,1.59,0,0,0-.28-.33s-.14-.12-.15-.11A1.84,1.84,0,0,0,1950,576.31Zm.93-1.69a4.14,4.14,0,0,0,.19-1,3.16,3.16,0,0,0,0-.76c-.05-.29-.17-.42-.35-.36s-.49.59-.56,1.26a1.36,1.36,0,0,0,.17,1,.93.93,0,0,0,.2.21l.14.12A1.75,1.75,0,0,0,1951,574.62Z" transform="translate(-1769.9 -458.55)"/></svg>