<svg id="圖層_13" data-name="圖層 13" xmlns="http://www.w3.org/2000/svg" viewBox="0 0 291.25 409.16"><defs><style>.cls-1{fill:#762100;}.cls-2{opacity:0.4;}.cls-3,.cls-5{fill:none;}.cls-3{stroke:#000;stroke-miterlimit:10;stroke-width:0.32px;}.cls-4{opacity:0.2;}.cls-6{fill:#fbcd78;}.cls-7{fill:#7b783e;}.cls-8{fill:#f7931e;}.cls-9{fill:#4d4d4d;}</style></defs><title>layer_13</title><polygon class="cls-1" points="170.22 400.55 25.33 344.46 25.34 40.11 170.22 96.52 170.22 400.55"/><polygon class="cls-1" points="170.06 96.41 170.22 400.55 291.25 360.53 291.04 56.34 170.06 96.41"/><polygon class="cls-2" points="170.06 96.41 170.22 400.55 291.25 360.53 291.04 56.34 170.06 96.41"/><path class="cls-3" d="M1976.35,253.41" transform="translate(-1951.35 -78)"/><polygon class="cls-1" points="170.06 96.41 25.34 40.11 146.38 0 291.04 56.34 170.06 96.41"/><polygon class="cls-4" points="170.06 96.41 25.34 40.11 146.38 0 291.04 56.34 170.06 96.41"/><line class="cls-5" x1="51.62" y1="95.86" x2="51.62" y2="95.86"/><polygon class="cls-1" points="140.8 278.22 52.63 244.09 52.63 213.69 140.82 247.23 140.8 278.22"/><polygon class="cls-6" points="144.68 390.76 49.96 354.04 49.96 261.47 144.68 298.36 144.68 390.76"/><polygon class="cls-7" points="96.72 372.31 49.96 354.04 49.96 261.47 96.72 279.69 96.72 372.31"/><path d="M1993.78,331.19" transform="translate(-1951.35 -78)"/><polygon class="cls-7" points="144.68 298.36 49.96 261.47 49.96 249.8 144.68 286.69 144.68 298.36"/><path class="cls-6" d="M1985.79,338.85c0-.08.24-.05.24-.17s.21-.1.26-.2c.2-.1.25-.17.4-.23s0,.05,0,.05h0c0-.06,0-.06,0-.11a1.41,1.41,0,0,1,.18-.17c.24-.09.2-.25.37-.35s.15-.17.22-.26a1.8,1.8,0,0,0,.2-.24c.07-.12.07-.25.14-.32s.08-.07.08-.08c.12-.17.15-.48.3-.61,0-.05.07-.12.07-.29a.85.85,0,0,0,.07-.46c0-.17-.12-.31-.12-.43s.15,0,.22,0,.11,0,.15.1l.1,0a2.32,2.32,0,0,1,.79,1.11c0,.12-.21.12-.3.13a1.07,1.07,0,0,0-.21.13c-.08.06-.1.17-.23.19l-.07-.06c0,.07,0,.08,0,.11,0,.19-.2.23-.2.38a1.4,1.4,0,0,0,.28.5,1.61,1.61,0,0,1,0,.42c0,.13,0,.23-.08.35s0,0,0,.1v.36l0,.09c0,.3,0,.73-.08.68s-.15-.18-.22-.28a.34.34,0,0,0-.12,0,.11.11,0,0,1,0-.05V339l0,0,0-.07v-.13c0-.21,0-.37,0-.62,0-.09,0-.38-.13-.45s-.17.15-.24.18a.81.81,0,0,1-.23.13l0,0c0,.05,0,.18-.07.14l0,0c-.07.12-.14.14-.24.22s-.1.12-.18.16-.37.29-.59.42c-.12-.07-.11.11-.2.08s-.12.06-.18.09a1.5,1.5,0,0,1-.34.16c-.1,0-.12-.07-.12-.16S1985.79,338.9,1985.79,338.85Zm.61-.14s0,0,0,0,0,0,0,0a0,0,0,0,0,0,0S1986.4,338.69,1986.4,338.71Zm.33-.35h0s0,0,0,0Zm.11,0,0,0h0v0A0,0,0,0,0,1986.84,338.39Zm1.06-1.36h0s0,0,0,0Zm.2,3.76,0,0v-1.14s0-.06,0-.05l.19.17c.1.06.11,0,.2,0l0,.2v.57a.28.28,0,0,0,0,.16c0,.48.09.82.09,1.24,0,0,0,.08,0,.13s0,.05,0,.05c0,.24,0,.35-.17.38l0,0s-.06,0-.06,0c-.2-.09-.35-.59-.35-.83C1988.05,341.6,1988.08,340.82,1988.1,340.79Zm.11-2.09,0,0h0v0Zm0,3.22,0,0h0v0S1988.26,341.89,1988.26,341.92Zm0-3.25,0,0h0v0S1988.31,338.66,1988.31,338.67Zm.14-.42v0h0Zm.07,1.76,0,0s0,0,0,0,0,0,0,0Zm.18-4.5,0,0h0a0,0,0,0,0,0,0s0,0,0,0,0,0,0,0h0s0,0,0,0S1988.7,335.48,1988.7,335.51Zm0,0a0,0,0,0,0,0,0h0S1988.73,335.52,1988.73,335.53Zm0,.65a0,0,0,0,0,0,0s0,0,0,0a0,0,0,0,0,0,0S1988.73,336.16,1988.73,336.18Zm0-.79,0,0h0s0,0,0,0Zm3,7.05a1,1,0,0,1-.38-.09,7.51,7.51,0,0,0-1.36-.54c-.41-.19-.36-.1-.75-.28a2.18,2.18,0,0,1-.31-.56c0-.16.14-.07.25,0s.2.14.31.2.17,0,.23,0l.1.07c0,.05.19,0,.26.08s.35.13.56.23.54.25.81.35.25.07.37.13,0,0,.05,0,.23.08.35.13.07,0,.1,0h0s.18,0,.2,0,.26,0,.42.05a4.88,4.88,0,0,1,.69,1.2c0,.11-.06.16-.19.1a6.86,6.86,0,0,1-.76-.53l-.21-.1-.32-.2-.42-.21Zm-1.91-4.77h.05c.34.16.8.3,1.11.45h.1s.07.07.18.12.47.21.71.25.29-.11.47,0a3.89,3.89,0,0,1,.26.32,2,2,0,0,0,.19.28s.2.26.2.4-.15.11-.24.06-.31-.19-.46-.26-.44-.25-.66-.36a2.16,2.16,0,0,1-.25-.1c-.1,0-.17-.09-.27-.14-.33-.15-.73-.29-.85-.34l-.34-.16s-.15,0-.18,0l-.4-.17c-.2-.09-.16-.14-.25-.33a.46.46,0,0,1,0-.15C1989.17,337.42,1989.37,337.45,1989.84,337.67Zm.92,4.12s0,0,0,0,0,0,0,0a.05.05,0,0,0,0,0S1990.76,341.77,1990.76,341.79Zm0,.19h0Z" transform="translate(-1951.35 -78)"/><path class="cls-6" d="M1985.94,347.53a.59.59,0,0,1-.26.07h0v0s.18-.11.24-.08S1985.94,347.48,1985.94,347.53Zm.68-.48c.08-.08.12-.2.22-.31a4.56,4.56,0,0,0,.12-1.29c0-.26,0-.31,0-.41s0-.29,0-.24a3.06,3.06,0,0,0,.62.39c.05,0,.42.11.47.14l.69.32c.12,0,.25-.13.25-.18s-.2-.24-.25-.27a.54.54,0,0,1-.35-.08,3.52,3.52,0,0,1-.61-.23,2.3,2.3,0,0,0-.33-.1,1.82,1.82,0,0,0-.37-.16c-.12-.07-.33-.11-.37-.32s.23,0,.35.09.89.5.89.09c0-.08-.1-.17-.17-.21a11.18,11.18,0,0,0-1.14-.45.49.49,0,0,1-.25-.31.08.08,0,0,1,0,0c.43.19.79.25,1.24.46,0,0,.11,0,.2,0s0-.19.1-.23a1.18,1.18,0,0,0-.22-.89s-.13-.06-.13-.13,0,0,0,0l0,0,0,0a4.46,4.46,0,0,1,.5.16c.13.06.49.29.49.43s-.2.15-.25.28c0,.38,0,.68.23.77a.43.43,0,0,0,.37,0c.12,0,.08-.17.19-.18a2.15,2.15,0,0,1,.15.91c0,.12.1.27.1.39s-.1.05-.1.14.06.13.06.2v0c-.07,0-.06.12-.06.2,0,.25.06.5.06.73,0,.08,0,.2,0,.2a1.3,1.3,0,0,1-.26-.14h0a4.53,4.53,0,0,1-1.05-.3l-.1-.05c-.12,0-.49-.21-.59-.11s-.05.16-.08.23-.09.15-.09.17-.18.21-.18.36a3.58,3.58,0,0,1-.79.36l-.1-.08C1986.11,347.3,1986.49,347.15,1986.62,347.05Zm4.09,3.89s0-.28,0-.31-.2-.27-.2-.41.15-.1.18-.19,0-.67,0-.65c0-.32-.08-.58-.08-.88a1.36,1.36,0,0,0-.39-.23l-1.09-.48s-.25-.06-.28-.08-.47-.21-.47,0,0,.35.17.44a.86.86,0,0,0,.33.11l.4.18c.06,0,.15.06.24.07s.12,0,.15,0a4.87,4.87,0,0,1,.64.33s0,0,0,0l0,0c-.16,0-.3-.09-.4-.1s-.23-.13-.3-.12-.08,0-.08-.06v0a5.75,5.75,0,0,0-.8-.27c-.13,0-.2,0-.2.12a.64.64,0,0,0,.27.56c.37.17.44,0,.64.15,0,0,.54.27.69.19.15.1.2,0,.3.09s-.06.1-.16.1l-.3-.13,0,0c-.07,0-.44-.17-.54-.14s-.75-.3-.8-.19,0,.31,0,.36v.12a.42.42,0,0,0,.18.31l0,0,.12.07a.21.21,0,0,0,.13,0c.1-.1.35.14.44.06a5.57,5.57,0,0,0,.83.19c0,.1-.25.06-.33,0s-.35-.06-.37,0a2.19,2.19,0,0,1-.67,0c-.08,0-.2.1-.25,0a.14.14,0,0,1-.07-.13V350a.09.09,0,0,0,0-.08s-.13.07-.13.17v.07c-.1.06-.37-.06-.54-.06s-.12,0-.15,0-.09,0-.17-.15a2.41,2.41,0,0,1-.18-.36.67.67,0,0,1,.28,0c.07,0,.43.12.39.06s0-.23,0-.28a2.23,2.23,0,0,1,0-.23v-.85a.87.87,0,0,1-.06-.38c0-.06,0-.13,0-.19a.55.55,0,0,0-.26-.51l-.09-.05c-.1-.06-.15-.18-.25-.26l.08,0a4.48,4.48,0,0,1,.44.22c.12.07.22,0,.3.09s.07.07.1.08l.22.07.05.06.38.18c.07,0,.15-.12.21-.14a1.26,1.26,0,0,1,.28,0,2,2,0,0,0,.5-.07c.11-.13.36,0,.36-.26s-.21-.49-.21-.71c.15.07.26,0,.42.1s.43.1.64.2.27,0,.4-.15-.08-.2-.2-.26-.3-.24-.3-.29v-.84a.56.56,0,0,0-.07-.18c-.27-.13-.25-.06-.53-.15,0,.19-.12.25-.12.37a1.17,1.17,0,0,0,0,.2c-.05,0-.05.09,0,.17-.16.07-.16.32-.29.44s-.19.06-.19.14-.11.16-.1.15,0-.07,0-.11.1-.11.1-.15a1.33,1.33,0,0,0,.13-.35,2.61,2.61,0,0,0,.1-.77,2.53,2.53,0,0,0-.08-.59,1.24,1.24,0,0,1-.1-.29c.17.08.39.45.54.52a2.5,2.5,0,0,0,.26.07c.13.07.29.11.39.16s.22-.14.34-.08.14.13.18.15a.34.34,0,0,1,.18.26,1.92,1.92,0,0,1-.13.46c.05.08-.07.18-.07.24l.1.24c.33.15.46.12.64-.05.09,0,0-.16.17-.14s.08.23.08.26.24.39.24.51,0,.12,0,.13c-.37-.18-.84-.33-.84-.2s.35.41.35.64-.37.12-.42.15-.1.06-.17.07-.28,0-.28.12.18.19.25.36c.29.2.56.45.84.66s.32.2.5.33l.22.18c.1.06.3.14.38.31,0,0,0,0,0,0-.31-.15-.51.09-.84-.06a1.24,1.24,0,0,1-.28-.28l-.22-.1-.2-.29-.2-.09c-.08-.08-.18-.29-.3-.42l-.1,0-.54-.57c-.06,0-.19,0-.33,0-.31,0-.66,0-1,.06a.21.21,0,0,0,.09.13c.17.09.37.14.56.23a.49.49,0,0,1,.2.12,2.73,2.73,0,0,1,.38.05c.08,0,.17.13.35.21a1.94,1.94,0,0,1,.27.5c.05.09.15.14.15.27s-.15.3-.15.44,0,.46,0,.71c0,0,0,0,0,.06s0,.09,0,.12.05.1.05.14v.65a.51.51,0,0,1,0,.21,2.74,2.74,0,0,0,0,.32V352c0,.12-.37.2-.52.13s-.12-.8-.12-1c0,0,0-.15,0-.17Zm-3.08-4.75c.3,0,.32-.15.32-.43a.3.3,0,0,0,0-.23c-.43-.21-.44-.13-.44.35A.38.38,0,0,0,1987.63,346.19Zm.72-.44v.43a.78.78,0,0,0,.12.3c.14.07.23,0,.38.08s.1-.33.1-.43,0-.28-.15-.33S1988.35,345.6,1988.35,345.75Zm.4-.6c.07,0,.07,0,.12,0a.37.37,0,0,0,.38-.25s-.08-.11-.2-.16-.52-.2-.52-.13,0,0,0,0S1988.57,345.06,1988.75,345.15Zm.46.34v0s0-.1,0-.12A.66.66,0,0,0,1989.21,345.49Zm.51,2.45,0,0s0,0,0,0,0,0,0,0S1989.72,347.91,1989.72,347.94Zm.76-1.11c.13.05.22.25.3.28a.29.29,0,0,0,.37-.2,3,3,0,0,0-.75-.22C1990.4,346.76,1990.43,346.77,1990.48,346.83Zm.46,4.85v0s0,0,0,0,0,0,0,0S1990.94,351.65,1990.94,351.68Zm.21-.08,0,0h0s0,0,0,0S1991.15,351.58,1991.15,351.6Z" transform="translate(-1951.35 -78)"/><path class="cls-6" d="M1991.84,360.53c-.07,0-.38-.21-.71-.36l-.63-.34-.91-.43a3.4,3.4,0,0,1-.67-.51,3,3,0,0,1-.79-.86c-.13-.18-.3-.36-.42-.55s-.39,0-.52.11l-.32.13c0-.08-.28.27-.37.23s-.18-.07-.21-.29-.26-.33-.26-.47,0,0,.09,0a5,5,0,0,1,.62,0s.69,0,.69-.12v0c0-.05,0-.46,0-.51s0-.13,0-.23c0-.28,0-.36-.24-.46,0,0-.16,0-.23-.06s-.29-.1-.29-.05v.08c0,.05,0,.07-.08,0a1.47,1.47,0,0,1-.35-.62s0-.08,0-.07c.31.14.56.21.79.32s.25-.18.47-.08.15.17.25.24.3.17.3.25-.21,0-.21.26c0,.1,0,.22,0,.29s0,.89.07,1.05a1.43,1.43,0,0,0,.15.27c.18.06.47.53.67.63h0c.28.13.49.33.74.45s1.14.58,1.54.77c.08,0,.27.07.37.12s.22.12.3.15a.67.67,0,0,0,.15.06,1,1,0,0,1,.39.23,1,1,0,0,1,.46.13s.21,0,.24.05h0s.13.11.15.12-.15,0-.22,0-.24,0-.24.1-.21.06-.21.14-.12.14-.25.08a2.17,2.17,0,0,1-.34-.24Zm-5-7.13c.18.09.35.41.51.49s.33.3.35.34a.49.49,0,0,1,.27.42c0,.26-.44.14-.44.24s-.27-.18-.27-.3-.16-.37-.23-.58-.28-.55-.27-.58S1986.77,353.38,1986.82,353.4Zm0-2.11c.19.1.42.45.56.59.38.35.87.77.87.95s-.3.36-.57.23a.77.77,0,0,1-.37-.56,3.37,3.37,0,0,0-.54-1.13l0,0C1986.74,351.26,1986.77,351.27,1986.82,351.29Zm1.75,2.29c.1,0,.2.11.3.15l.48.21c.12.06,1,.47,1,.21v-.09l0,0c0-.3-.24-.43-.6-.6-.12-.05-.22-.07-.43-.16s-.06-.05-.19-.2a2.34,2.34,0,0,1-.2-.37s0,0,0,0a5.43,5.43,0,0,0,.79.41l.25.15c.3.18.29,0,.29-.14a.81.81,0,0,0-.11-.47c0-.12-.2-.27-.2-.37s.21,0,.26,0c.3.14.54.42.8.54s.3.14.3.29-.4.17-.4.36a.39.39,0,0,0,.2.29l.42.17c.13,0,.22-.12.35-.06s.37.54.37.59-.12.11-.27.1l-.15-.1-.62-.31c-.25-.12-.35-.1-.35.27,0,.19.2.26.35.33s.25.09.37.15c.44.25.44,0,.69.08a2.43,2.43,0,0,1,.31.21c.25.21.56.41.56.73,0,.05,0,.05-.07,0a5.46,5.46,0,0,1-.49-.25l-.83-.38-.12,0-.25-.13h-.05a4.42,4.42,0,0,1-.74-.41l-.2-.05a1.3,1.3,0,0,0-.39-.13c-.25-.12-.47-.25-.73-.37,0,0-.26,0-.29-.06l-.47-.2-.27-.39C1988.28,353.44,1988.52,353.56,1988.57,353.58Zm1.17,4.84c0-.05,0-.34,0-.39-.06-.23,0-.65-.1-.71s-.43.07-.57.1a1,1,0,0,1-.25,0c-.15,0-.3.12-.47,0s-.07,0-.07-.1-.1,0,.32-.24c.1,0,.22,0,.32-.1a2.4,2.4,0,0,0,.23-.11,2.15,2.15,0,0,0,.66-.51c0-.1-.12-.18-.17-.2l0,0c-.13.07-.2.15-.38.07a1,1,0,0,1-.14-.36c0-.05.05-.18.05-.32l0,0a7.16,7.16,0,0,0,0-1c0-.05,0-.07,0-.06.22.1.28.38.54.5a.42.42,0,0,0,.15,0l.62.29a.29.29,0,0,1,.15.05l.13.07a1.48,1.48,0,0,0,.54.14c.12,0,.25-.16.35-.12l.07.07a3.2,3.2,0,0,1,.54.47c.06,0-.07,0-.12.07s-.07.14-.07.24,0,.41,0,.61,0,.2-.11.16l-.09-.06s-.06,0-.07,0,.49.4.49.55-.38.12-.56.1a.47.47,0,0,0-.3,0s-.15.08-.15.13a4.38,4.38,0,0,0,1.09,1c.14.06.54.32.54.4s-.3,0-.44.05-.37.25-.42.22-.1-.08-.15-.15-.2-.19-.27-.29-.1-.21-.18-.31-.12-.21-.19-.33a1.72,1.72,0,0,1-.42-.65l-.28-.51a.4.4,0,0,0-.13-.26s-.12.12-.15.11c0,.16,0,.35,0,.51s0,.19,0,.3,0,.31,0,.52-.38.25-.38.3a.39.39,0,0,1-.17-.32Zm.27-2.34s.25.09.39.16h0l.63.3c.25.09.27-.08.27-.27a.55.55,0,0,0-.07-.38,13.84,13.84,0,0,0-1.32-.52l-.08,0c-.06,0-.13-.06-.14,0a1.55,1.55,0,0,0,0,.48C1989.74,355.93,1989.89,356,1990,356.08Zm.92,1.37c.32.15.77-.35.77-.46l-.08-.06c-.22-.11-1.12-.57-1.12-.28A1,1,0,0,0,1990.93,357.45Z" transform="translate(-1951.35 -78)"/><path class="cls-6" d="M1991.07,367.47a2.84,2.84,0,0,1-.5-.21l-.17-.05a2.66,2.66,0,0,1-.39-.22c-.13-.05-.23,0-.35-.08s-.2-.12-.32-.18-.08,0-.1,0-.21.4-.49.26-.13-.29-.23-.4,0-.4,0-.82,0-.86,0-1.28a.47.47,0,0,0,0-.23v-.09a.19.19,0,0,0-.12-.21c-.09-.05-.12.06-.18,0a1.09,1.09,0,0,0-.2,0s-.06-.08-.06-.13,0-.05,0-.07a2.67,2.67,0,0,1,.34-.14c.07,0,.12-.09.2-.13a1.5,1.5,0,0,0,.57-.3c.1,0,.32-.17.32-.31s-.13-.17-.3-.25-.24-.05-.37-.11-.09-.09-.14-.12-.18-.07-.18-.14-.1-.28-.13-.31a.62.62,0,0,0-.36-.35.5.5,0,0,0-.28-.08c-.12-.06-.1.25-.12.37a2.65,2.65,0,0,0-.05.5c0,.09,0,.23.07.28a1.19,1.19,0,0,0,.38.1c.2.1.39,0,.59.13,0,0,0,.05,0,.07s-.19,0-.44,0-.29.07-.41,0l-.08,0c-.15-.07-.15.16-.15.29v.18c0,.59-.07.76-.07,1.4l0,0a.22.22,0,0,0,0,.1,1.16,1.16,0,0,1-.28.94.63.63,0,0,1-.46.08c-.23-.11-.23-.34-.28-.51a1.92,1.92,0,0,0-.15-.37c-.07-.13-.24-.28-.24-.43s.1,0,.18.05l.24.11c.27.12.38.12.42,0v-.48l0-.07v-.74c0-.1,0-.43-.1-.46-.25-.12-.35,0-.55,0s-.26,0-.32,0-.17-.29-.22-.4a3,3,0,0,0-.23-.5s0,0,0-.05a5.46,5.46,0,0,0,.84.27c.34.09.6.26.6-.37,0,0,0-.06,0-.16s0-.11,0-.15c0-.23.09-.55-.22-.69h0c-.29-.06-.71-.23-.69-.2-.14,0-.25-.4-.3-.51l-.07-.14s0-.05,0,0a4.79,4.79,0,0,0,.76.42c.28.14.63.35.63.1v-.41l0-.45c0-.22-.31-.32-.31-.47s.3,0,.36.05.28.25.43.37.3.16.27.37a1.91,1.91,0,0,0-.2.86c0,.11.13.17.2.2.34.17.34-.18.47-.12s.07,0,.07.06-.1,0-.1,0,0,.08,0,.15c0,.72.28.75.63.91a.35.35,0,0,0,.1-.23c0-.07-.05-.14-.05-.22a1.13,1.13,0,0,0,0-.36c.05-.33-.44-.38-.44-.53a4.21,4.21,0,0,1,.64.18l.1,0a4.28,4.28,0,0,0,.71.19c.17.07.28.05.4.11a.75.75,0,0,0,.37.1,3.32,3.32,0,0,1,.55.13l.42-.18c.15.05.39.38.5.51a.77.77,0,0,1,.29.48c0,.15-.26,0-.44-.11a1,1,0,0,1-.28-.08l-.06,0a3,3,0,0,1-.58-.19c-.26-.12-.6-.35-.6-.11,0,0-.07.89.15,1s.27-.1.35-.26.13-.11.13-.21,0-.17.12-.12.14.11.23.15.46.22.46.34-.55.24-.55.4,0,.09.1.11c.54.29.46.13.74.05s.19-.11.33,0,.12.18.19.21a.85.85,0,0,1,.26.57c0,.06-.06.05-.12,0l-.08,0a.72.72,0,0,0-.21-.05l-.56-.27a.18.18,0,0,1-.1,0c-.16-.07-.66-.35-.66-.21s.09.26.16.29.2.19.23.24a5,5,0,0,0,.79.72,10.44,10.44,0,0,0,1,.78.05.05,0,0,1,0,.06,1.74,1.74,0,0,1-.65,0c-.27,0-.14.15-.62-.07,0,.14-.13.16-.13.23s-.07.28-.07.47c0,.7,0,1,0,1.66,0,.1-.08.11-.13.17s-.31.25-.45.19C1991.16,368.21,1991.56,367.71,1991.07,367.47Zm-4.33-4.42,0,0h0a.08.08,0,0,0,0-.05S1986.74,363,1986.74,363.05Zm2.72,3.49.15,0,.14.08c.1,0,.26.08.26,0v-.76c0-.07,0-.25-.18-.28s-.91-.43-.91-.23a.73.73,0,0,0,.29.52v.4l0,.1Zm-.13-2.34.13.06s.69.38.69.1a1.48,1.48,0,0,0-.05-.35c0-.1,0-.51-.19-.58-.2.1-.37.12-.6.24s-.37,0-.37.2A.74.74,0,0,0,1989.33,364.2Zm0,.94.5.23c.07,0,.2,0,.2-.09v-.35a.37.37,0,0,0-.18-.25c-.07,0-.34-.11-.42-.15l-.08,0c-.16-.07-.14.18-.14.24S1989.21,365.09,1989.31,365.14Zm.44-2.45c.42.19.32-.23.35-.49l0-.09c0-.19,0-.4-.2-.51s-.74-.34-.74-.15a.63.63,0,0,0,.12.28,1.42,1.42,0,0,1,.26.67.62.62,0,0,1,0,.13A.44.44,0,0,0,1989.75,362.69Zm2.56,2.87a1,1,0,0,0-.2-.34,5,5,0,0,1-.35-.43c0-.17-.39-.52-.39-.68a2.06,2.06,0,0,1-.2-.59c-.07,0-.15-.1-.25-.15s-.21,0-.21.1,0,.34,0,.51a1.18,1.18,0,0,1,0,.42c-.05.08-.19.06-.19.18s.19.14.24.17l.09,0a4.32,4.32,0,0,0,.51.16.48.48,0,0,1,.29,0A5.27,5.27,0,0,0,1992.31,365.56Zm-1.36.24c.07,0,.47.2.47,0a4.19,4.19,0,0,0,0-.48s-.16-.15-.25-.19c-.43-.2-.54-.2-.54,0v.06c0,.08,0,.17,0,.27S1990.89,365.77,1991,365.8Zm-.33.89v.08c0,.27.33.37.6.49s.18-.12.18-.27a2.81,2.81,0,0,0-.05-.69c0-.07-.17-.18-.28-.23s-.21,0-.35-.08-.11.09-.11.29S1990.62,366.59,1990.62,366.69Z" transform="translate(-1951.35 -78)"/><path class="cls-6" d="M1987.53,374.05a.15.15,0,0,0,0-.09c0-.1,0-.44.07-.55a3.67,3.67,0,0,1-.07-.42s0-.09,0-.15c0-.46,0-.8,0-1.26,0,0,0-.16,0-.17a.54.54,0,0,0,0-.2s0-.57-.17-.67-.15.17-.22.24a2,2,0,0,1-.62.36c-.08,0-.15,0-.2,0s-.09.09-.15.12-.29.27-.41.22l0,0a.62.62,0,0,1-.36.16c-.07,0-.1,0-.1-.1l.37-.21v0l.34-.19c.08,0,.13-.14.23-.17s.13,0,.1-.07c.37-.42.5-.57.67-.79a2.36,2.36,0,0,0,.42-.52,1.4,1.4,0,0,1,.22-.36c.13-.09.11-.32.17-.47s.05-.07.05-.1c.07-.48-.29-.64-.29-.83a.15.15,0,0,1,0-.09,4.05,4.05,0,0,1,.47.12c.25.11.32.24.52.49a2.06,2.06,0,0,1,.28.31c0,.22-.08.17-.08.26a8.3,8.3,0,0,1-.64,1.08s-.1.06-.1.08c0,.27.2.22.2.71,0,.06-.08.23-.1.32a.25.25,0,0,0,0,.12,3.54,3.54,0,0,1,0,.6c0,.17,0,.61,0,.95,0,.05-.08.1,0,.12s0,.28,0,.51,0,.22,0,.32,0,.2-.1.18l.1.25v.69l0,.05s0,.09,0,.14c0,.27-.1.56-.33.45a.49.49,0,0,1-.32-.44v-1Zm-1.6-2.67v0a0,0,0,0,0,0,0Zm5.5,5.18.09,0c.35.16.21-.44.27-.89l0-.06c0-.42,0-.5-.37-.66,0-.06-.41-.15-1-.43,0,0,0,0,0,.09s.14.22.2.34c.21.2.6.63.6.93,0,0,0,0,0,0-.24,0-.34.19-.52.1a.5.5,0,0,1-.21-.29l0-.06a2.44,2.44,0,0,0-.09-.75s-.1-.19-.1-.21c-.09-.17.06-.25-.28-.41s-.59-.22-.89-.36-.26-.16-.35-.36c.2-.06.52.13.78.25.41.19.48.19,1.4.61,0,0,.45.16.67.27s.22-.24.22-.39a.31.31,0,0,0-.19-.26c-.75-.35-.86-.38-1.12-.5a.55.55,0,0,1-.14-.09,6.14,6.14,0,0,0-.88-.36h0L1989,373c-.17,0-.28-.42-.28-.5s0-.06,0-.07.48.25.53.19c0-.3,0-.87,0-.93s0-.27,0-.3c0-.22,0-.37,0-.59a4.17,4.17,0,0,0-.2-.64c0-.08.12-.12.15-.1a5.21,5.21,0,0,1,.64.62.65.65,0,0,0,.1.09s.1,0,.12,0,.17.06.24.09c.39.18.43.11.43-.14a.35.35,0,0,0-.18-.34l-.2-.06-.64-.3a3.71,3.71,0,0,1-.46-.19.76.76,0,0,1-.28-.36,0,0,0,0,1,.08,0l.86.36c.19.08.32.19.49.27s.33.09.31-.09c0,0-.05-.29-.05-.32a1.28,1.28,0,0,0-.31-.8c0-.06-.25-.16-.25-.3a.37.37,0,0,1,.35,0c.22.1.83.51.83.76,0,.06-.08.11-.08.23s0,.3,0,.45c0,.37,0,.43.3.55a4.73,4.73,0,0,0,.47.2,1.59,1.59,0,0,0,.66,0c.12,0,.13-.09.25,0s.14.16.48.54a.55.55,0,0,1,.2.34c0,.05,0,.11,0,.11-.21-.1-1.15-.59-1.15-.39s.51.62.51.88c0,.08-.14.16-.14.28s0,.18,0,.25c0,.52,0,.67,0,1a.43.43,0,0,0-.09.26c0,.16.55.58.55.78a.31.31,0,0,1-.36.16c-.14-.06-.14-.21-.33-.3s-.21,0-.23,0a1.47,1.47,0,0,0,.23.47v0c0,.08.13.16.18.19a.67.67,0,0,0,.44,0s.1-.06.15,0a7.39,7.39,0,0,1,.55.66.71.71,0,0,1,0,.14c0,.08,0,.08-.11,0l-.07,0s-.07,0-.08,0c-.2-.09-.4-.23-.63-.34a.82.82,0,0,1-.26-.14c-.35-.16-.28.19-.28.33s0,.2,0,.29c0,.27-.07.22-.07.37s0,.19,0,.29,0,.14-.08.19c-.24,0-.18.07-.24.11a.64.64,0,0,1-.33.09c-.08,0-.21.08-.22,0a1.69,1.69,0,0,0-.29-.69S1991.37,376.53,1991.43,376.56Zm-1.59-4.39a5.15,5.15,0,0,1,.69.27l.13-.06V372a.29.29,0,0,0-.08-.14,1.87,1.87,0,0,0-.62-.24c-.21-.08-.2,0-.22.21S1989.76,372.13,1989.84,372.17Zm.54,1c.11,0,.28.15.28,0v-.35s-.13-.18-.16-.22l-.61-.28c-.13-.06-.15.11-.15.21C1989.74,372.9,1990.13,373,1990.38,373.16Zm-.33-1.68c.28.12.57.3.63.07s0-.39-.2-.49l-.14-.05c-.24-.11-.53-.27-.53,0S1989.87,371.39,1990.05,371.48Zm.71,4,0,0h0a.06.06,0,0,0,0-.05S1990.76,375.46,1990.76,375.49Zm.34-2.41a.79.79,0,0,0,.2.51.86.86,0,0,0,.35.24c.39.19.54.22.54.11s-.17-.31-.22-.48a.39.39,0,0,0-.2-.31l-.44-.19c-.08,0-.13-.11-.2-.14s-.08,0-.08,0A1.79,1.79,0,0,1,1991.1,373.08Zm.4-1c.16.09.57.25.57,0,0-.12,0-.37-.2-.49s-.3-.09-.42-.15c-.3-.11-.3,0-.35.21a.47.47,0,0,0,.13.31Zm-.25-.93c.28.13.73.4.92.18,0-.05,0-.05,0-.1s-.24-.24-.32-.28l-.19-.06s-.12-.08-.18-.11-.39-.16-.39,0A.67.67,0,0,0,1991.25,371.12Zm0,1.58.66.31s.17,0,.18-.05v-.42c0-.18-.34-.28-.37-.3l-.45-.13c-.07-.11-.12.13-.12.25S1991.15,372.66,1991.23,372.7Zm.75,4.21s0,0,0,0,0,0,0,0,0,0,0,0S1992,376.9,1992,376.91Z" transform="translate(-1951.35 -78)"/><path class="cls-6" d="M1985.78,381c.13-.07.22-.45.31-.41a.24.24,0,0,1,.1.1v.54c0,.22-.07.56-.3.45s-.24-.25-.31-.36S1985.69,381.07,1985.78,381Zm2.82,2.69c.07,0,.16-.1.3,0a2.54,2.54,0,0,0,.6-.22s.46-.18.51-.21l0,0c0-.17.38-.1.38-.33a2.28,2.28,0,0,0-.29-.83c-.2-.09-.44.36-.74.22s-.16.08-.2.18-.08.09-.08.14a.78.78,0,0,1-.52.78,3,3,0,0,0-.32.12c-.17-.06-.25-.31-.35-.44s-.3-.28-.3-.43.1,0,.18,0l.09,0c.4.19.36,0,.45-.11s.1-.13.1-.16a.2.2,0,0,1,0-.06c0-.34.15-.26.15-.65a4.26,4.26,0,0,0,.05-.64l0,0a5.18,5.18,0,0,0-1.32-.42l0,0c-.17-.08-.3,0-.47-.12s-.2-.24-.3-.4.07-.55.07-.87,0-1.09.05-1.14,0-.37,0-.52,0-.19,0-.29a2.82,2.82,0,0,0,0-.41,5.19,5.19,0,0,0-.28-1s-.1-.15-.1-.17v0c0-.05.14-.12.33,0s.21.23.3.33.42.62.44.61a1.12,1.12,0,0,0,.22.05c.21.09.42.23.62.32.45.21.16-.26.57-.21,0,.05.13.16.15.2.19.09.2.28.3.4s.13.16.13.3-.25,0-.41,0l-.21-.1a.68.68,0,0,0-.31-.08c0,.26,0,.68.2.8s.08-.29.3-.14c0,.08.28.38.28.52s-.38,0-.65-.1-.17,0-.17.3c0,.11-.08.21-.08.32a.3.3,0,0,0,0,.21c.22.09.38-.35.6-.25a1.79,1.79,0,0,1,.45.71c0,.25-.33.1-.5,0l-.18-.11c-.21,0-.39-.23-.44,0,0,.06,0,.21,0,.29s0,.18,0,.28a.46.46,0,0,0,.07.29,2.13,2.13,0,0,0,.55.2c.05,0,.13-.26.25-.2s.11.3.2.39.24.21.24.33-.18.09-.18.44v0a.47.47,0,0,0,.05.24c.12.06.29-.22.39-.33a1.14,1.14,0,0,1,.15-.16c.09-.1.09-.24.16-.32s.16-.44.3-.38.18.29.23.38.07.4.27.5a3.65,3.65,0,0,1,.35.14.89.89,0,0,0,.52-.06s.22,0,.42.42c0,.07.32.35.32.45s-.1.12-.17.12l-.62.36a.13.13,0,0,1-.12.06l-.37.2,0,0a4,4,0,0,0,.79.94l.08.06c.1,0,.33.33.44.38.36.17.45.4.8.57.07,0,.12.13.2.16l.07,0a.08.08,0,0,1,0,.08c0,.14-.21,0-.31,0a2.29,2.29,0,0,0-.25,0c-.23,0-.44.07-.67,0a4.75,4.75,0,0,1-1-.9c-.05,0-.65-1-.74-1s-.38.18-.67.23a.65.65,0,0,0-.37.05c-.22,0-.47.07-.69.12s-.55.11-.77,0c0,0-.13-.11-.13-.18C1988.05,383.43,1988.37,383.66,1988.6,383.65Zm-2-2.78v-.06a.12.12,0,0,1,.1,0,.32.32,0,0,1,.1.17c0,.17.15.35.15.41a.9.9,0,0,1,0,.21.81.81,0,0,1-.12.35c-.05.05-.12,0-.2,0a.81.81,0,0,1-.27-.37A2.29,2.29,0,0,0,1986.64,380.87Zm.67-.75c.45.21.35-.55.35-.8l-.05-.07s-.42-.25-.52-.12,0,.39,0,.59S1987.1,380,1987.31,380.12Zm-.2-1.54a.26.26,0,0,0,.1.24c.11.05.52.34.52,0s0-.43,0-.67a.73.73,0,0,0-.28-.19s-.16-.05-.27-.06,0,.25,0,.37-.05.07-.05.28Zm.15,2.86c0-.06.07-.41.12-.39s.23.8.23.85a.28.28,0,0,1-.32.2c-.13-.06-.15-.3-.15-.37S1987.24,381.55,1987.26,381.44Zm-.07-4,0,.06a.93.93,0,0,0,.15.1c.37.19.4.06.4-.31,0-.2-.19-.31-.18-.34h0s-.28-.13-.32-.05,0,.14,0,.42Zm.59,4.44.15-.18a.13.13,0,0,1,0-.06c0-.06,0,0,.06-.13s0-.29.12-.22.05,0,.08.08a2.69,2.69,0,0,0,.22.68c0,.23-.33.37-.45.31s-.17-.33-.17-.4Zm1.88-1.79a1.15,1.15,0,0,0,.35-.66.26.26,0,0,0-.07-.18c-.43-.2-.43-.26-.49-.53,0,0,0-.2,0-.22a.7.7,0,0,1,.24-.21c.07-.07.22,0,.32-.07a2.59,2.59,0,0,1,.33-.17c.14-.12.21-.28.37-.38s.24-.11.24-.31,0-.16,0-.26.07-.11.2-.05a1.83,1.83,0,0,1,.27.21c.18.08.26.3.44.45s.2.09.2.26-.37.07-.37.4a3,3,0,0,0,.77,1c.07.09.17.13.24.22l.15.21c0,.17.23.31.23.46s-.44,0-.55.07c-.38-.15-.2-.34-.52-.49-.15-.07-.25-.1-.25.05a.62.62,0,0,0,0,.29c0,.09,0,.14,0,.23a.68.68,0,0,0,.32.66c.22.1.25-.05.32-.17s.16-.25.23-.22.08.15.08.27.34.54.34.83c0,0,0,.08-.08.06s-.23-.06-.44-.16c0,0-.73-.21-.77-.24l-.27-.15a1.46,1.46,0,0,1-.3-.95c0-.23.05-.22.05-.37s0-.41-.22-.45c0,0-.25-.07-.27-.08s-.31-.14-.37-.08.29.31.29.55a.29.29,0,0,1,0,.21c-.12.12-.49.28-.49.37s-.29.16-.38.16l-.16-.07s0-.15,0-.17C1989.45,380.2,1989.59,380.15,1989.66,380.06Zm.74,1.78,0,.12c0,.07.12.53.36.64a.76.76,0,0,0,.64-.44c0-.13,0-.14-.08-.17-.24-.11-.19,0-.61-.24-.07,0-.36-.06-.36.07Zm.68-2.86.17.11s.62.34.62.24v0a4.34,4.34,0,0,0-.42-.92c-.13-.07-.33,0-.5.11s-.39.05-.34.2A1.53,1.53,0,0,0,1991.08,379Z" transform="translate(-1951.35 -78)"/><path class="cls-6" d="M1986.34,390.62s.2,0,.22-.05a2.75,2.75,0,0,1,1.19-.19c0-.18.1-.1.2-.15s.42-.19.42-.3-.19-.21-.19-.2l-.3-.08c-.21-.1-.28-.11-.58-.25a3.08,3.08,0,0,1-.56-.21c-.29-.1-.21-.34-.4-.56h0l.08,0s.53.28.81.41c.45.2.65.25.75.29s.39.21.39.21l0,0c.06,0,.3.09.45.16s.44.21.53.12a.12.12,0,0,1,0-.12c0-.35,0-.37-.33-.65l-.22,0-.56-.23-.61-.29a.32.32,0,0,1-.18,0,.55.55,0,0,1-.25-.36s0-.08,0-.06l.76.35a.42.42,0,0,1,.14,0l.19.1.28.1.2.12.46.22c.1,0,.1-.18.1-.3s-.06-.35-.06-.55.26.07.39.13.45-.22.45-.52c0-.06-.14-.16-.19-.2l-.51-.23-.07,0-.07,0c-.17-.07-.28-.09-.28,0s.13.31.14.4,0,.28,0,.32-.19.12-.21.1l-.33-.15-.05,0h0l-.74-.38s-.14,0-.22-.07l-.33-.1a1.49,1.49,0,0,0-.41-.14.34.34,0,0,1-.18-.24c0-.08.07-.06.2,0s.18.1.57.28a.19.19,0,0,1,.22,0c.1,0,.18.13.28.18h0l0,.05s0,0,.06,0c.44.09.78.46.78.05v-.24a.32.32,0,0,0-.2-.34c-.65-.3-1.23-.47-1.47-.58l-.09-.08a3.55,3.55,0,0,1-.61-.23,1.23,1.23,0,0,1-.19-.34.71.71,0,0,1-.17-.37c.55.25,1,.51,1.64.79.12,0,.15-.29.15-.4s0-.15,0-.22,0-.11,0-.16a2.23,2.23,0,0,0,0-.23c0-.21-.07-.32-.07-.51h0a.69.69,0,0,0,.1.19c.33.38.39.55.39.78a.59.59,0,0,1-.21.43s-.1,0-.1,0c0,.23,0,.2.84.57.09-.05.06-.48.15-.54a.8.8,0,0,1,0-.24c0-.33,0-.48,0-.7l0,0c-.14-.09-.12-.46-.12-.47a1.46,1.46,0,0,1,.27.24,2.38,2.38,0,0,1,.29.27c0,.36,0,.73.05,1.08,0,.07,0,.14,0,.23a.58.58,0,0,0,.34.58c.15.07.36.17.4,0s0-.33,0-.47a.62.62,0,0,0,0-.13c0-.25-.09-1.38-.09-1.4s0-.11,0-.08a2,2,0,0,1,.4.37c.1.1.51.28.43.39-.18-.08-.08.31-.15.3l0,.09c0,.06,0,.74.12.8s.38-.14.54-.27a.73.73,0,0,0,.18-.14c.1-.05.17-.41.27-.36s.22.26.37.43.33.33.33.44-.69.16-.83.22c0,.08-.23-.12-.46,0-.1,0-.45.1-.45.19s.07.18.2.24a7.5,7.5,0,0,0,1.16.48s.22-.1.27-.11l.11,0s0-.13.11-.08.24.32.33.46.12.16.12.17c0,.27-.19.19-.36.11s-.77-.3-.8-.32a6.43,6.43,0,0,0-1.14-.48v0s.1.14.12.19-.29.17-.29.4c0,.07.12.13.17.15l.27.11a2.5,2.5,0,0,0,.74.26c.1,0,.18-.23.28-.18s.07.1.14.13l.32.48v.1s-.09-.08-.12-.09h0a7.5,7.5,0,0,1-1-.4c-.17-.08-.33,0-.49-.14l-.48-.23c-.5-.24-.34.09-.45.23.1.27.12.38.4.51.11.06.4.14.65.25s.22-.2.42-.11.35.42.42.5,0,.13-.12.1l-.1-.08a2.8,2.8,0,0,1-.52-.16,2.53,2.53,0,0,0-.22-.13c-.08,0-.08,0-.15,0s-.38-.13-.53-.2l-.11-.1,0,.1c0,.25,0,.68.34.8l.47.2.1.05a.11.11,0,0,0,.1,0l.69.33,0,.05s.14,0,.2,0,.2-.2.42-.1.13.16.26.32.19.28.21.27v.23s0,0,0,0-.06-.05-.06-.05c-.41-.19-.41-.17-.56-.24,0,0-1.48-.71-1.48-.56,0,.3.72.78.82,1s0,.44.09.48,0,0,0-.06v-.1c0-.09,0-.18.1-.18a7.53,7.53,0,0,0,.86.67c.18.12.35.24.53.34s.27.11.27.21-.5-.16-.75.06c-.1.1-.12.33-.37.21,0,0-.11-.14-.17-.16-.26-.24-.31-.2-.42-.31s-.08-.22-.15-.3-.15-.09-.2-.16-.17-.24-.27-.42a4.54,4.54,0,0,1-.64-1.13c-.13-.18-.06-.42-.31-.54-.09,0-.11.1-.11.12a.64.64,0,0,1,.11.28v.15l0,.11s0,.09,0,.14a.8.8,0,0,0,0,.15c0,.16,0,1-.11,1.05s-.12.15-.2.15a.39.39,0,0,1-.34,0c-.22-.1-.17-.44-.19-.6a6.32,6.32,0,0,1-.06-.91c-.07.06,0-.54-.15-.61a.17.17,0,0,0-.18,0c-.06-.09-.29.16-.47.08l-.08-.12h0l.07.13c-.07.06-.2.05-.3.07a1.58,1.58,0,0,1-.49.1c-.3.16-.33-.08-.55.09-.23-.1-.46,0-.66,0s-.19-.07-.25,0-.39,0-.59-.08c0,0-.1,0-.1-.09C1985.84,390.53,1986.09,390.65,1986.34,390.62ZM1988,386a0,0,0,0,0,0,0s0,0,0,0h0Zm2.36-.17,0,0,0-.05Zm1.2,6.73a.22.22,0,0,0-.15-.21A.28.28,0,0,0,1991.6,392.52Zm.07.14h0v0l0,0Zm.16.07s0,0,0,0,0,0,0,0,0,0,0,0S1991.83,392.71,1991.83,392.73Zm.06,0,.14.06-.11-.08h0Zm.26.13h0s0,0,0,0,0,0,0,0Zm.07-1.69s0,0,0,0,0,0,0,0a0,0,0,0,0,0,0S1992.22,391.18,1992.22,391.2Zm.4.16a0,0,0,0,0,.05-.05S1992.62,391.34,1992.62,391.36Z" transform="translate(-1951.35 -78)"/><path class="cls-6" d="M2109.66,386.21c.08.05.16.08.24.12a1.74,1.74,0,0,0,.47.16s0,0,0,0a.34.34,0,0,0,0-.11l-.09-1.4s-.06-.13-.11-.16l-.15,0c-.31-.12-.53-.22-.83-.36-.11-.05-.08.2-.08.26s.25.31.25.46,0,.09,0,.14.1.14.1.23-.2.3-.34.23c-.3-.14-.23-.6-.25-.79s0-.39-.08-.61-.27-.22-.37-.27-.38-.15-.72-.31c-.07,0-.11-.19-.18-.23s-.23-.38-.42-.47-.09.26-.09.48c0,0,0,.23,0,.26v0s0,.1,0,.14,0,.12,0,.16,0,.15,0,.24,0,.21,0,.31c0,.27,0,.49-.25.57a.76.76,0,0,1-.35-.42c0-.09,0-.27,0-.83,0,0,0-.12,0-.14s0-.35,0-.46,0-.61,0-.69,0-.06,0-.15a.08.08,0,0,1,0-.07c0-.16,0-.32,0-.48a.17.17,0,0,1,0-.12s0-.21,0-.24c0-.34,0-.92-.1-1s-.31-.12-.61-.25-.48-.32-.48-.56c0,0,0-.1.08-.08.21.12.4.24.64.35s.25.09.4.15.07-.22.07-.31c0-.46-.05-.8-.05-1.34,0-.05,0-.33,0-.42s-.22-.47-.22-.56l.15.08.32.25a.72.72,0,0,1,.2.14,6.61,6.61,0,0,0,.48.62c0,.32-.29.21-.29.43,0,0,0,.08,0,.12a8.26,8.26,0,0,0-.06,1c0,.17,0,.27.18.34s.32-.05.49,0,.2.28.25.4a.17.17,0,0,0,.13-.08,1.11,1.11,0,0,0-.05-.46c0-.05.05-.05.13,0s.29.31.51.64a1.66,1.66,0,0,0,.43.27c.09,0,.16.07.16,0,0-.76-.11-.7-.2-.82l-.9-.39c-.3-.14-.42-.4-.65-.68,0,0,0,0,0,0,.17.08.47.27.79.42a2.76,2.76,0,0,1,.55.29c.29.13.54.32.54,0a4.17,4.17,0,0,0-.07-.89c0-.25-.23-.39-.23-.48s0,0,.1,0,.23.17.33.21a4.21,4.21,0,0,0,.48.35c.13.06.25.26.35.31.3.14.85.58.85,1a.3.3,0,0,1-.44.24c-.2-.09-.1-.79-.46-1s-.32.24-.32.68c0,.16.3.3.47.38l.79.35c.06,0,.32,0,.34,0s.12-.06.15-.05c.22.05.64.77.64.82s0,.08,0,.07c-.78-.36-.92-.34-1.19-.47-.08-.09-.27-.13-.3-.19l-.68-.31a.11.11,0,0,0-.16.05v.41s0,.11,0,.13l.69.32c.2,0,.21-.21.32-.35.14.05.18.15.27.26s.37.27.37.49-.12.21-.12.42.05.45.05.72a.5.5,0,0,1-.05.27v.42s0,.06,0,.09,0,.12-.12.16a2.85,2.85,0,0,1-.52-.62c-.1,0-.17-.07-.17,0s.1.19.17.27c.38.44.05.57.46.76l.26.12a.72.72,0,0,1,.45-.09,2.19,2.19,0,0,1,.54.78c0,.1,0,.11-.15.05a4.19,4.19,0,0,1-.47-.24l-.1-.05-.7-.25c-.06,0-.11,0-.11.09,0,.57,0,1.51,0,1.62s-.09.14-.1.18-.36.23-.6.12a1.4,1.4,0,0,1-.24-.44c0-.32-.26-.36-.4-.6C2109.64,386.2,2109.65,386.22,2109.66,386.21Zm-3-3.59,0,0s0,0,0,0a.05.05,0,0,0,0,0A0,0,0,0,0,2106.69,382.62Zm2.23,1.38c.09.05.14,0,.24,0s.08.07.1.07.15,0,.15,0-.12-.2-.15-.31c0-.47.08-.68-.41-.91l0,0c-.09,0-.17,0-.27-.05s-.08.38-.15.47-.08.14-.18.09a2.17,2.17,0,0,1-.29-.36c0-.52,0-.51,0-.7s0-.27,0-.3a2.23,2.23,0,0,0-.05-.76c-.08,0-.08.11-.2.05s0-.12-.08-.15a.19.19,0,0,0-.1,0l-.54-.21-.05,0c0,.13,0,1.48,0,1.67s.36.46.54.57a5.18,5.18,0,0,0,.92.48l.37.22A.69.69,0,0,0,2108.92,384Zm-1.41-.62s0,0,0,0,0,0,0,0,0,0,0,0S2107.51,383.36,2107.51,383.38Zm1.11-1.6c.05,0,.57.28.57.17l0-.21s0-.14-.1-.18c-.61-.28-.59-.29-.59,0A.36.36,0,0,0,2108.62,381.78Zm.44.45-.41-.19c-.05,0-.13,0-.13.07v.3c0,.11.21.22.43.32s.21.08.31,0S2109.24,382.31,2109.06,382.23Zm.93,2.2c.15.09.29.05.29-.06,0-.27,0-.82-.2-.94-.06,0-.19-.06-.23,0s0,.32,0,.51a.23.23,0,0,0-.2.2C2109.64,384.27,2109.92,384.4,2110,384.43Zm0-2s.89.51.89.22a.35.35,0,0,0-.2-.34l-.22-.09c-.26-.12-.57-.33-.62-.11A.32.32,0,0,0,2110,382.4Zm-.15.57c0,.17.31.27.43.33s.51.26.51,0c0,0,0-.29-.05-.3l-.79-.37-.1.05Z" transform="translate(-1951.35 -78)"/><path class="cls-6" d="M2105.1,392.77c.32,0,.3.05.53,0,0,0,0-.18.1-.15a1.58,1.58,0,0,0,.93-.05,3.42,3.42,0,0,0,.65-.2s.64-.18.59-.27a.1.1,0,0,0-.07-.11c-.41-.15-.85-.3-1.26-.49l-.18-.08h-.12l-.17-.11a2.74,2.74,0,0,1-.36-.14l-.25-.06c-.4-.18-.34-.18-.44-.38s-.22-.3-.17-.3,0-.11,0-.09.27.15.43.22l1.09.51-.05-.07s0,0,.05,0l.1.07c.29.14.86.36,1.13.49l.36.21,0,0,.54.26c.07,0,.1-.08.1-.13a1.23,1.23,0,0,0-.08-.46c-.12,0-.06.12-.22.05a.34.34,0,0,1-.18-.28l0-.17,0-.63c0-.22-.05-.65,0-.66,0-.23-.05-.44-.05-.65s0-.58-.14-.64-.14.07-.23,0l-.2-.28s-.49.3-.81.46c0,.17.12.23.12.36s-.22.47-.47.36c-.22-.3-.15-.64-.22-1,0-.16-.12-.35-.12-.5,0,0,0-.06,0-.05s.27.34.34.46.45-.46.45-.6a.68.68,0,0,1,0-.12l0,0c0-.05,0,0,0-.06L2106,387l-.13-.26h0c0-.1-.18-.32-.18-.51s0-.05.09,0c.24.11.51.33.79.46.1,0,.1.06.14,0s.15.2.33.28c0,0,0-.07.09,0s.15.11.23.14.16,0,.17-.07a2,2,0,0,0,0-.34c0-.11-.13-.2-.13-.32s.1-.14.2-.09.25.26.35.36a1.36,1.36,0,0,1,.33.29c.08,0,.06.13.06.19s-.06.2-.06.22,0,.23.14.3l.5.23.1.11.11.19a.27.27,0,0,1,.1.11c0,.17.25.34.25.51s-.1.09-.1.25c.2.09.19,0,.38.06a1.17,1.17,0,0,1,.44.6.22.22,0,0,1,0,.08c-.13,0-.13.4-.13.55,0,.37,0,.74.05,1.12a.28.28,0,0,0,.19.16c.48.22.6-.15.83-.39.15-.08.18-.27.31-.4s.13,0,.13-.05,0-.18.15-.13a1.18,1.18,0,0,1,.27.42c0,.3-.41.19-.35.6a1.48,1.48,0,0,0,.13.21,2.71,2.71,0,0,0,.3.42.44.44,0,0,1,.15.41c-.05,0-.24.24-.45.14s-.18-.23-.25-.34a9.86,9.86,0,0,0-1.23-.45l0,0c-.2-.14-.15.07-.24.11s-.48,0-.48.12,0,.07,0,.09a5.23,5.23,0,0,0,.58.29c.69.33,1.11.47,1.43.62.12,0,.3-.08.35,0s.15-.11.2-.09.07.09.22.16l.32.4a2.29,2.29,0,0,1,.2.31c0,.07-.07.09-.12.07a8.27,8.27,0,0,0-1-.39c-.25-.1-.5-.21-.74-.33l-.2-.11h-.05l-.4-.19a1.35,1.35,0,0,1-.44-.15l0,0a2.44,2.44,0,0,0,.58.71c.36.33.7.62,1.07.9l.12.1a1.76,1.76,0,0,1,.23.14c.06,0,.21.17.32.22a5.66,5.66,0,0,1,.79.52c.08.17-.25.08-.42.23h0c-.18.09-.42.2-.57.13a1.73,1.73,0,0,1-.35-.31c-.11,0-.18-.22-.28-.26a5.77,5.77,0,0,1-1.43-1.56c-.09-.11-.23-.46-.33-.5s-.07.1-.07.15,0,.09,0,.12a2.24,2.24,0,0,0-.05.42c0,.08,0,.11,0,.23a.26.26,0,0,1-.1-.15h0l0-.07c-.07,0-.07.06-.07.08s0,0,0,0l0,0c0,.08,0,.15.1.22h.13s0,.2,0,.25-.17.17-.25.22-.1.07-.11.06a.33.33,0,0,1-.26-.33.28.28,0,0,1,0-.1.08.08,0,0,1,0-.07.1.1,0,0,1,0,0,1.19,1.19,0,0,1-.07-.27c0-.18,0-.34,0-1a.88.88,0,0,1-.07-.13c-.08,0-.18.07-.23.08s-.35.05-.47.12h0a4.65,4.65,0,0,0-.89.13c-.08.06-.28,0-.37,0s-.13,0-.18,0a2.57,2.57,0,0,0-.6,0c-.1,0-.2-.05-.3,0a.72.72,0,0,1-.51,0,.33.33,0,0,1-.15-.25S2105,392.72,2105.1,392.77Zm2.06-2.24a.48.48,0,0,0-.2,0,4.66,4.66,0,0,0-.77-.21,1.59,1.59,0,0,0-.22-.13c-.15-.07-.28-.06-.43-.13s-.16-.26-.34-.53v-.15a.17.17,0,0,1,.08,0c.19.08.34.2.54.3s.37.12.57.22a1.27,1.27,0,0,1,.23-.12c.09-.09.22-.3.29-.39a.93.93,0,0,0,.15-.13c.05-.12.14-.17.2-.25l.15-.25s.09-.08.09-.1.05-.26.18-.2.23.52.34.64-.19.25-.27.32-.25.08-.25.28l0,.07.27.66a3.91,3.91,0,0,0,.21.51c0,.26-.32.31-.41.34a.59.59,0,0,1-.29-.59A.33.33,0,0,0,2107.16,390.53Zm-.79,2.3,0,0h0S2106.33,392.81,2106.37,392.83Zm0-6,0,0h0s0,0,0,0S2106.34,386.79,2106.34,386.81Zm.65,3.32.32.15s0-.07,0-.09a1.46,1.46,0,0,0,0-.29s-.09-.06-.1-.07a3.6,3.6,0,0,0-.3.21A.34.34,0,0,0,2107,390.13Zm.51-2.17a0,0,0,0,0,.08,0s0-.24-.11-.28a.43.43,0,0,0-.14,0C2107.33,387.69,2107.41,387.92,2107.5,388Zm1.1.78c.09.11.27-.08.27-.32s-.24-.28-.42-.36-.25-.12-.24.05S2108.45,388.55,2108.6,388.74Zm-.08,3.59h.05l-.05,0Zm.63-2.18s.09,0,.09-.06l0,0c.14,0,.3,0,.3-.15s0-.43-.05-.49l-.17-.06c-.1,0-.47-.26-.52-.1a3.61,3.61,0,0,1-.05.38s0,.14.05.2l.38.18Zm-.38.71.39.13s.3.16.3,0l0-.56s-.08-.1-.1-.14a.61.61,0,0,0-.13,0c0-.07.08,0,0-.08a1.33,1.33,0,0,1-.51-.09h-.05c0,.14,0,.37,0,.43S2108.72,390.81,2108.77,390.86Zm.18,3.35s.05,0,.05,0,0-.1,0-.12,0,0,0,0l-.05-.06s0,0,0,0A.15.15,0,0,0,2109,394.21Zm.51-2.39s.05,0,.05,0,0-.44-.2-.44-.3-.14-.3-.07A1.59,1.59,0,0,0,2109.46,391.82Zm.67-3a4,4,0,0,1-.42-.18l-.22-.12c-.09.06-.34-.39-.34-.59,0,0,0,0,0,0l.56.28c.22.1.58.38.58-.18a.06.06,0,0,0,.08,0c.06-.18.22-.1.37,0s.43.35.43.54-.05.1-.05.19a.18.18,0,0,0,.09.13,1.43,1.43,0,0,1,.27.08c.15,0,.18-.15.35-.07a2.89,2.89,0,0,1,.6.66.82.82,0,0,1,0,.21c-.12-.06-.2,0-.32-.06a4.55,4.55,0,0,0-.72-.28v.07a1.67,1.67,0,0,0-.2-.15s-.18-.07-.22,0c0,.27-.15.56-.42.53s-.39-.55-.39-.67,0-.06,0-.09a.35.35,0,0,0-.05-.18Zm.16,5.33s0,0,0,0v-.05S2110.29,394.11,2110.29,394.12Zm.22-4.08c.32.15.31.15.66-.35,0-.17.2-.13.2-.3l.09,0s0,.05,0,.08.25.36.25.48a2.87,2.87,0,0,1-.38.35c-.1,0-.36.06-.36.17s.1.2.1.38-.25.23-.35.3c-.31-.09-.23-1-.3-1S2110.41,390,2110.51,390Zm.1-1.11.12.06c0-.05,0-.07-.05-.09S2110.61,388.88,2110.61,388.93Zm.35,5.58a0,0,0,0,0,0,0s0,0,0,0,0,0,0,0S2111,394.48,2111,394.51Zm.1-2.58.39.18c0-.23,0-.38-.13-.46s-.29.16-.29.24Zm.91,3.83a0,0,0,0,0,0,0s0,0,0,0a0,0,0,0,0,0,0S2112,395.75,2112,395.76Z" transform="translate(-1951.35 -78)"/><path class="cls-6" d="M2105.13,400.29s.39.17.64.28l.28.08s.13.1.19.11a14.17,14.17,0,0,1,1.54.62l.59.22c.15,0,.13-.2.15-.32a.07.07,0,0,0,0,0l0-.07c0-1,0-1.07,0-1.42,0-.07,0-.32,0-.56,0,0,0-.09,0-.12v-.71a.81.81,0,0,0,0-.11s0-.17,0-.19a.22.22,0,0,0,0-.06,0,0,0,0,1,0,0,10.89,10.89,0,0,1-.1-1.11,3.21,3.21,0,0,0-.1-1,1.28,1.28,0,0,1-.26-.28c0-.22.39-.2.61-.1s.47.4.69.65c0,0,.1.15.13.18,0,.3,0,.31-.2.4a3.76,3.76,0,0,0-.1.63c0,.12,0,.23.07.43s0,.14,0,.17v.35a1.06,1.06,0,0,0,.4.26c.42.19.69,0,1,.13a1.77,1.77,0,0,1,.54.55c0,.34,0,.36-.26.25s-.51-.32-.79-.45-.88-.48-.93-.3c0,.65.05,1.44.05,1.83v1.22c0,.09.14.26.35.36.05.07.31.1.87.36.22.07.4.18.6.23s.41-.09.64,0,.22.25.3.33.15.17.17.21c.16.24.45.4.45.76a.16.16,0,0,1-.25.09,2.85,2.85,0,0,1-.37-.23c-.23-.11-.27-.26-.38-.31a3.86,3.86,0,0,1-.71-.48c-.64-.3-1.07-.55-1.8-.89l-.15,0c-.28-.13-.47-.18-.7-.28a5.38,5.38,0,0,0-1.2-.41,4.19,4.19,0,0,1-.79-.22.87.87,0,0,1-.58-.07c-.26-.12-.21-.29-.61-.87Z" transform="translate(-1951.35 -78)"/><path class="cls-6" d="M2106,408.69a3.41,3.41,0,0,1,.07-.69c0-.12,0-.3,0-.45,0-.48.07-.56.07-.79l-.15-.24c0-.2.18-.14.32-.08a.71.71,0,0,1,.3.22.42.42,0,0,0,.25.27,1.84,1.84,0,0,1,.34.11l.25,0,.3-.16c.1,0,.17.19.28.28s.49.43.49.74c0,.13-.15.08-.19.14s-.2.2-.2.25v.07l0,.79a1.06,1.06,0,0,1,.05.43.28.28,0,0,1-.27.32c-.15,0-.19.09-.35,0s-.12-.57-.31-.66a.84.84,0,0,1-.18-.07c-.17,0-.48-.24-.59-.08,0,.37.12,1.15-.35.93-.07,0-.12-.14-.15-.22C2106,409.45,2106,408.89,2106,408.69Zm.33-2a0,0,0,0,0,0,0s0,0,0,0,0,0,0,0S2106.28,406.65,2106.28,406.67Zm.31,2,.2.07c0-.1.58.34.64.1a2.85,2.85,0,0,0,0-.5s0-.89-.18-1-.85-.4-.91-.23,0,.47,0,.72S2106.34,408.55,2106.59,408.67Zm.79-2.46a.43.43,0,0,1-.1-.3c0-.19-.05-.7,0-.84a2,2,0,0,0,0-.33l0-.06s0-.06,0-.09a.06.06,0,0,1,0-.06c0-.27,0-.52,0-.82,0-.15,0-.29,0-.46l-.3-.44c0-.13.26-.09.32-.06a3.14,3.14,0,0,1,.52.4,1.82,1.82,0,0,0,.08.19l0,.05.66.27.49.23s0,0,.08,0l.13.07c.19.09.38-.2.62-.09.07,0,.07.08.14.17a5.35,5.35,0,0,1,.57.51v.18c0,.13-.29,0-.29.51,0,.28.07.38.07.87v.52c0,.25-.35.53-.59.41s-.31-.52-.3-.68h0c-.06,0-.1-.3-.15-.25s-.36-.14-.64-.27c0,.06-.66-.24-.76-.28s0,.3,0,.47c0,.49-.46.38-.58.32s-.1-.09-.1-.17Zm0-1.46h0v0h0Zm0,.12s0,0,0,0,0,0,0,0a.06.06,0,0,0,0,0S2107.46,404.85,2107.46,404.87Zm.66.4c.15.07.25,0,.38.1a4.16,4.16,0,0,0,1,.36c.1,0,.1-.18.1-.28s0-.4,0-.63,0-.38-.15-.59a2.11,2.11,0,0,0-.45-.18l-.94-.44-.05-.05c-.1.05-.17,0-.19.09a9.06,9.06,0,0,0,.13,1.44A.32.32,0,0,0,2108.12,405.27Zm1.09,5.64a3.8,3.8,0,0,0,.05-.62,9.08,9.08,0,0,1,0-1.21v0c-.07-.29,0-.69-.08-.83a1.3,1.3,0,0,0,0-.13c0-.06-.12-.26-.13-.33s-.1-.14-.1-.17.2,0,.3,0a.61.61,0,0,1,.2.19c.1,0,.29.35.43.41s.14,0,.24,0,.5.18.6.23.29-.23.52-.11a2.71,2.71,0,0,1,.24.25s.13.16.15.17.2.19.2.34-.25.1-.27.23c0,.55.05.61.05.87s0,.62,0,.59v.49c0,.23-.34.34-.57.36a0,0,0,0,0,0,0s-.05,0-.09,0c-.21-.2-.11-.3-.17-.39,0-.43,0-.42-.3-.54s-.62-.22-.69-.15c0,.26,0,.46,0,.75a.53.53,0,0,1-.39.31c-.21-.08-.26-.46-.26-.56S2109.21,410.93,2109.21,410.91Zm.28.43,0,0h0s0-.05,0-.05S2109.49,411.31,2109.49,411.34Zm.07-.07a.08.08,0,0,0,0-.07S2109.51,411.24,2109.56,411.27Zm.08-1,0,0h0a.06.06,0,0,0,0-.05S2109.64,410.19,2109.64,410.22Zm0,1s0,0,0,0,0,0,0,0,0,0,0,0S2109.67,411.24,2109.67,411.27Zm.32-1,.34.09c.15.07.42.18.55.08,0-.37,0-1.59-.18-1.7a1,1,0,0,1-.27-.08c-.24,0-.64-.27-.69-.09,0,.41.05.82.05,1.24,0,.07,0,.14,0,.2S2109.9,410.22,2110,410.25Zm0-1.85s0,0,0,0h0s0,0,0-.05S2110,408.38,2110,408.4Zm.13-1.6.05,0,0,0h0Zm.11.15s0,0,0,0,0,0,0,0a0,0,0,0,0,0,0S2110.19,406.93,2110.19,407Zm1.28,4v0h0Z" transform="translate(-1951.35 -78)"/><path class="cls-6" d="M2110.68,419.58c0,.09-.13,0-.17,0l0-.06a.44.44,0,0,1-.27-.37c0-.42,0-.85,0-1.16s-.08-.14-.33-.32c0,0-.23-.11-.26,0,0,.23,0,.17,0,.29,0,.47,0,.5,0,.73,0,0-.05.1-.05.12s-.08.39-.33.27-.21-.35-.21-.47,0-.49,0-.76c0-.47-.05-.85-.05-1.13,0,0,.05-.26.05-.31a.86.86,0,0,1,0-.17c0-.06,0-.13,0-.18a1.43,1.43,0,0,1-.05-.45c-.14-.08-.19,0-.28-.05s-.6-.18-.6.12a3.33,3.33,0,0,0,.33.4c0,.17.26.3.32.47,0,0,.08.24.1.29a1.51,1.51,0,0,1-.12.2c-.1-.06-.16-.08-.23,0a.82.82,0,0,1-.4-.3,2.93,2.93,0,0,0-.09-.53,3.13,3.13,0,0,1-.19-.7s.19-.14.23-.16a.86.86,0,0,0,.25-.69.08.08,0,0,0-.06-.09c-.1,0-.23.06-.28.09s-.25.23-.29.24-.09,0-.09.07a.5.5,0,0,0,0,.17c0,.1,0,.18,0,.28s-.07.3-.07.46,0,.08,0,.11v.17c0,.33,0,.69,0,1v.17c0,.23,0,.35,0,.54s0,.64-.2.55c-.35-.16-.25-.27-.39-.43a.14.14,0,0,1-.1-.1v-.79s0-.06,0-.09,0-.14,0-.18a5.31,5.31,0,0,1,0-.54s0-.07,0-.13a.2.2,0,0,1,0-.09c-.05-.29,0-.38-.16-.47a1.45,1.45,0,0,0-.59.23c-.15-.07-.14.07-.2.11a3.24,3.24,0,0,0-.33.13s-.15,0-.2,0-.3.24-.54.12c0-.1,0-.19.07-.23l.41-.21s.15-.18.26-.2a1,1,0,0,1,.38-.25c.1-.05.11-.14.19-.21s.16-.21.25-.23a.78.78,0,0,0,.35-.28c.11-.11.25-.15.31-.3s.15-.14.2-.23.2-.23.23-.24.1-.13.1-.15.06-.11-.08-.18a.94.94,0,0,0-.4-.07c0-.07-.18,0-.3-.06a2.27,2.27,0,0,0-.41-.08c-.06-.07-.13,0-.2,0s-.2-.05-.32-.1a.71.71,0,0,1-.33-.27s-.37-.39-.37-.5,0-.05.05,0l.68.32a.46.46,0,0,1,.29.07l.2.09c.12,0,.39.12.45.13s.1-.57.1-.63l0,0v-.58c0-.07-.06-.23-.06-.29a.06.06,0,0,1,.06-.06c.17.08.33.31.55.44s.48.22.48.37-.34.09-.34.39,0,.64.2.72.29-.33.42-.27.46.69.7.91a7.59,7.59,0,0,1,1,.42c.07,0,.09-.16.09-.25s.05-.31.05-.37a1.5,1.5,0,0,0-.12-.53c-.11-.07-.14-.3-.26-.44s0-.09,0-.11c.21.12.46.06.74.19a1.54,1.54,0,0,1,.62.54c0,.06.1.23.1.24,0,.34-.22.25-.45.24s-.1.15-.1.23v.28l0,.06s0,.24.1.24.44.16.49.18l.22.11c.08,0,.35.11.43.15s.18-.3.4-.15c0,0,.11.22.2.26a1.07,1.07,0,0,0,.15.17c.09.11.26.24.26.39s-.17.1-.35,0a2,2,0,0,0-.51-.29,4.34,4.34,0,0,0-.4-.17.64.64,0,0,1-.32-.07c-.07,0-.21-.08-.21-.17-.07.09-.27-.07-.36-.08l-.05,0v.08a2.4,2.4,0,0,0,.05.61,2.77,2.77,0,0,0,.47.24c.15,0,.24-.38.34-.33s.3.28.4.38h0a.77.77,0,0,1,.31.42c0,.17-.2,0-.2.38,0,0,0,.11,0,.13,0,.64,0,.66,0,.81s.05.2.05.3c0,.34,0,.76,0,1.18l0,0,0,.09a.14.14,0,0,1,0,.07l0,.11a.94.94,0,0,1-.25.72s-.12.07-.12.14-.27-.06-.38-.05-.24-.42-.39-.53-.07-.11-.22-.18S2110.73,419.56,2110.68,419.58Zm-3.55-6.23s0,0,0,0,0,0,0,0,0,0,0,0S2107.13,413.33,2107.13,413.35Zm.1-1.55,0,0s0,0,0,0a0,0,0,0,0,0,0S2107.23,411.79,2107.23,411.8Zm1.67,3.48h0v-.46a.25.25,0,0,1,0-.12s0-.09.06-.07c.24.15.37.5.6.65,0-.06.55.29.55.05v-.49a.28.28,0,0,0-.05-.09l-.37-.16c-.07,0-.07,0-.1-.06l-.08,0-.4-.19a.84.84,0,0,0-.26-.27c-.13-.06-.2-.06-.28,0s-.22.15-.22.25.05.14.1.24.07.21.1.25Zm-.39,1.39s0,0,0,0,0,0,0,0h0Zm1.33-.23c.12.06.23.05.24-.08v-.45a.43.43,0,0,0-.07-.16c-.44-.21-.49-.2-.49.08,0,.06,0,.12,0,.17C2109.54,416.31,2109.65,416.35,2109.84,416.44Zm-.28.76a.31.31,0,0,0,.08.13c.6.29.48.07.57-.19a.75.75,0,0,0-.1-.33c-.21-.09-.36-.12-.55-.21Zm.72-3.48h0v0h0Zm.08.18a.06.06,0,0,0,.07,0l0-.09-.05,0S2110.34,413.88,2110.36,413.9Zm.12-.27s0,0,0,0l0,0h0C2110.46,413.62,2110.46,413.61,2110.48,413.63Zm.17,2.21s0,0,0,0h0l0,0Zm0,1.92h0Zm.18.08.42.19c.17.06.22-.06.22-.19a1.64,1.64,0,0,0-.07-.48,1.34,1.34,0,0,0-.23-.13c-.12-.05-.34-.16-.44-.08s0,.17,0,.19,0,.1,0,.2l0,.08A.74.74,0,0,0,2110.83,417.84Zm-.1-1.11.05.07.49.23c.08,0,.08-.06.1-.1a4.9,4.9,0,0,0,0-.6.27.27,0,0,0-.15-.12c-.08,0-.17,0-.25-.09l-.12-.06c-.1-.05-.13,0-.13.11A4.73,4.73,0,0,0,2110.73,416.73Zm.17,2.68c.59.31.59.15.62-.08,0,0,0-.28,0-.31v0l0-.11a.49.49,0,0,1,0-.15l0-.05a1.93,1.93,0,0,0,0-.41s-.07.07-.12,0-.37-.15-.54-.23h-.1a.83.83,0,0,0,.05.42v.55s0,.06,0,.09A.28.28,0,0,0,2110.9,419.41Zm.42-5.58c.1,0,.13.09.25.21,0,0,.42.29.42.53,0,.06,0,.21-.07.23s-.14.11-.3,0a.41.41,0,0,1-.22-.21C2111.4,414.28,2111.32,414.07,2111.32,413.83Zm.36.62h0a.1.1,0,0,0,0,0h0Z" transform="translate(-1951.35 -78)"/><path class="cls-6" d="M2110.74,426.51a2.66,2.66,0,0,1-.52-.19l-.31-.18,0,0h-.1l-.37-.17c-.08,0-.29-.08-.45-.16h0c-.08,0-.28-.14-.32-.12a5.34,5.34,0,0,0-.55-.2,1.67,1.67,0,0,0-.24-.15,1.37,1.37,0,0,1-.19-.05v0c-.34-.16-.19,0-.78-.28l-.26-.08a.33.33,0,0,1-.13-.08l-.12,0a2.05,2.05,0,0,1-.33-.18s-.09,0-.12,0,0,0,0,0l-.32-.15-.17,0a1.06,1.06,0,0,1-.15-.15h0a4.85,4.85,0,0,1-.34-.46s0-.05,0,0,.21.11.22.15l.62.29h.08a1.28,1.28,0,0,0,.19.12c.1.06.15,0,.33.12a.12.12,0,0,1,.07.07c.19.09.3.11.49.2,0,0,.09.07.14.09s.05,0,.06,0c0-.28-.1-.29-.1-.39a1.15,1.15,0,0,1,0-.18c0-.09,0-.2,0-.42a3.1,3.1,0,0,0,.1-.81s0-.33,0-1.11c0,0,0-.27,0-.29s0,0,0-.1-.14-.28-.25-.38-.11-.15-.14-.16a.25.25,0,0,1-.07-.08c0-.05.12,0,.17,0l.08.07.61.4.08.07s.21.07.4.15a2.17,2.17,0,0,0,.24.07,2.07,2.07,0,0,0,.5.16,4.15,4.15,0,0,0,.1-.53s0-.06-.08-.1c-.39-.19-.87-.29-1.09-.39-.06,0-.1-.07-.15-.1a.24.24,0,0,1-.12,0,.26.26,0,0,1-.1-.07,3,3,0,0,1-.72-.27,1.54,1.54,0,0,1-.56-.11,1,1,0,0,1-.38-.52,6.72,6.72,0,0,1,1.38.57.65.65,0,0,1,.24.06l.23.13a1.61,1.61,0,0,1,.46.14c.12.06.39.22.39.14l.45.2c.05.1.22-.22.22-.39a.57.57,0,0,0-.22-.45c-.06-.19-.22-.18-.22-.37s.19,0,.24,0a1.24,1.24,0,0,1,.22.18c.13.06.27.2.35.24a.92.92,0,0,0,.4.28l.14.12c0,.27-.22.31-.22.56a.19.19,0,0,0,.1.2.59.59,0,0,1,.2.12s.12,0,.13,0l.66.3a2.06,2.06,0,0,1,.35.12c.08,0,0,0,.08.06a.81.81,0,0,1,.34.09c.31-.08.47-.23.88,0a1.13,1.13,0,0,1,.34.53c0,.15-.43-.11-.67-.19a2.21,2.21,0,0,1-.69-.2c-.14-.06-.3-.15-.33-.13s-.07-.05-.1-.07a2.2,2.2,0,0,1-.46-.11c-.29-.14-.59-.23-.71-.28-.51-.24-.28.16-.39.31s.14.34.3.42a.29.29,0,0,0,.14,0l.72.34.05.05s-.06,0-.1,0c-.2-.08-.44-.16-.64-.25a4.27,4.27,0,0,0-.45-.16l-.29-.19c-.1-.06-.16,0-.22-.05a10.36,10.36,0,0,0-1.08-.36c-.06,0-.15.4-.15.48s.29.3.73.5a3.22,3.22,0,0,1,.45.16,5.56,5.56,0,0,0,1.21.5c.08,0,.15-.11.24-.07l.09.07v.25a.3.3,0,0,1-.15,0,3.24,3.24,0,0,0-.43-.15,3,3,0,0,1-.44-.24c-.15-.07-.3-.06-.42-.11a3.82,3.82,0,0,0-.6-.23l-.05-.06h0a2.9,2.9,0,0,1-.61-.2,1.66,1.66,0,0,0,0,.39s0,.22,0,.26l.11,0c.12.05.18.11.3.16l.27.11a.41.41,0,0,1,.13.08c.37.17.61.23.76.29s.17.09.27.14l.47.2a.33.33,0,0,1,.13.11l0,0c-.18-.05-.65-.25-.63-.24a.35.35,0,0,0-.14-.12c-.16,0-.41-.14-.55-.15s-.25-.08-.32-.17l-.15,0c-.14-.08-.82-.35-.72-.17,0,0,0,.2,0,.29s0,.05,0,.07.11.16.12.18l.66.31.12,0,.62.27a2.64,2.64,0,0,0,.27.1c.59.27.94.37,1.39.58v0a.63.63,0,0,1,.22,0c.1,0,.13-.42.13-.64v-.32l.05,0,0,0v-1.26c0-.16-.5-.27-.5-.41s.32.09.43,0a.59.59,0,0,1,.41,0c.2.09.58.52.51.53,0,.28-.16.27-.16.6a2.49,2.49,0,0,0,0,.38v.93c0,.09-.05.08-.05.13s0,.1,0,.15a1.17,1.17,0,0,1,0,.27c0-.07-.1.81-.49.63a.62.62,0,0,1-.25-.41.56.56,0,0,1,0-.2c0-.16-.17-.21-.2-.28s-.07,0-.07,0a4.87,4.87,0,0,0-.52-.19l-.27-.14,0,0-.15,0-.05-.05,0,0c-.08,0-.45-.16-.52-.19l-.32-.15a1.94,1.94,0,0,0-.2-.05l-.27-.12a5.36,5.36,0,0,1-.57-.17l0,0s-.1,0-.11,0l-.1-.07s-.13.35-.18.41a.17.17,0,0,0-.06.15,1.34,1.34,0,0,0,.24.23h0a11.43,11.43,0,0,0,1.76.72l.12.1c.06.05.15,0,.27.09a.62.62,0,0,1,.12.09v0a4.4,4.4,0,0,1,.9.32c.18.08.37.1.55.2l0,.07v-.06c.34.16.44.07.72.06a.26.26,0,0,1,.15,0c0,.09.27-.12.31-.1a.86.86,0,0,1,.33.41c0,.13.15.13.15.27a.23.23,0,0,1-.05.13s-.1,0-.13,0c-.54-.26-.54-.29-.66-.34a.57.57,0,0,1-.27-.09c-.41-.19-.42-.1-1-.36l-.07-.07a.15.15,0,0,1-.09,0s0,0,0,0S2110.74,426.49,2110.74,426.51Zm-5-.35a2.26,2.26,0,0,1,.26,0,.47.47,0,0,1,.15,0c.25-.06.56-.07.84-.11h.29c.13-.05.31,0,.45-.06s.2-.11.3-.13.27-.17.44-.09.1.24.17.27.1.23.1.42c-.1,0-.06.14-.12.12s-.19,0-.3,0-.15,0-.22,0-.27,0-.41,0-.19-.09-.24,0c-.27-.13-.34.07-.61-.06-.08-.12-.29,0-.3,0s-.18,0-.34-.06-.28,0-.43-.05-.17-.09-.2,0-.08,0-.08-.06S2105.54,426.12,2105.69,426.16Zm.68.12s0,0,0,0,0,0,0,0a0,0,0,0,0,0,0S2106.37,426.26,2106.37,426.28Zm.62,0s0,0,0,0a0,0,0,0,0,0,0s0,0,0,0S2107,426.25,2107,426.27Zm2.1-5.09.07,0v0S2109.09,421.13,2109.09,421.18Zm.32-.5s.05,0,.05,0l-.05,0Zm.86,3.7s.05.06.09.09h0c0,.14-.2,0-.23,0a.1.1,0,0,1-.07-.07S2110.21,424.35,2110.27,424.38Zm.14,2.35c.13.06.44.3.39.33a2.24,2.24,0,0,1,.51.36,1.68,1.68,0,0,1,.43.33c.09,0,.21.24.33.3a.48.48,0,0,1,.3.38c0,.09-.08.15-.08.21v0a.25.25,0,0,1-.12,0c-.21-.1-.21.07-.43,0a.92.92,0,0,1-.38-.5s-.11-.15-.11-.18-.19-.28-.43-.64a2.71,2.71,0,0,1-.46-.61S2110.37,426.71,2110.41,426.73Zm.35-.21h0s0,0,0,0S2110.76,426.53,2110.76,426.52Zm.08.07s0,0,0,0l0,0s0,0,0,0A.05.05,0,0,1,2110.84,426.59Zm0,.68h0l0,0Zm.08-4.42s0,0,0,0h0a.08.08,0,0,0,0-.05S2110.9,422.83,2110.9,422.85Zm.83,2.17h0a0,0,0,0,0,0,0s0,0,0,0A0,0,0,0,0,2111.73,425Zm0,3.06a.06.06,0,0,0,0,0s0,0,0,0,0,0,0,0S2111.73,428.07,2111.73,428.08Zm.36.3.08,0v-.05l-.08,0Zm.06-6.13,0,0h0v0S2112.15,422.24,2112.15,422.25Zm0,6.06s0,0,0,0h0v0Z" transform="translate(-1951.35 -78)"/><path class="cls-6" d="M2106,433.72c.13,0,.3-.16.39-.16a.71.71,0,0,1,.4-.26s.22-.28.25-.29.09-.18.12-.29.1-.1.1-.12a.61.61,0,0,0,.1-.23,2.55,2.55,0,0,0,.32-1c0-.11,0-.12-.1-.21-.51-.21-.92-.18-1.29-.35s-.2-.29-.27-.46-.29-.42-.29-.48a.29.29,0,0,0,0-.08s.1,0,.15,0,.26.16.4.22c.38.18.77.28,1.17.45l.17.09c.09.05.28.09.44.16.4.19.92.38,1.08.45s.05,0,.11.11.46.19.7.31h.1l.15.1.32.15a5.36,5.36,0,0,0,.64-.19c.15,0,.2.2.35.32l.47.7a1,1,0,0,1,0,.19c0,.13-.1.13-.2.09-.32-.15-.62-.37-.91-.51s-.72-.28-1.08-.44l-.19-.1c-.05,0-.1,0-.1,0s.16.16.28.3.22.23.22.43-.22.25-.35.28,0,.22,0,.34v.64c.06.13,0,.25.06.4a1.59,1.59,0,0,0,.19,1.1,10.33,10.33,0,0,0,1.26.42l.2.06c.26.12.37.08.44-.09s.09-.52.23-.46c0,.29.12.56.12.81s.34.7.34.77-.16.15-.26.1a3,3,0,0,1-.35-.19,2.17,2.17,0,0,0-.28-.1.85.85,0,0,1-.22,0c-.35-.16-.33,0-.59-.07l-.47-.22c-.28-.13-.56-.18-.67-.23a.48.48,0,0,1-.2-.14c-.4-.6-.39-.73-.39-1.08,0-.05,0-.44,0-.49s0-.14,0-.15c0-.52,0-1.07,0-1.58s.09-1-.25-1.15l-.09,0-.12-.07c-.13-.06-.53-.14-.53-.05a2,2,0,0,0,.2.31c.08.12.28.31.28.44s-.13.18-.18.23a2.55,2.55,0,0,1-.41.5c-.15.08-.16.19-.23.29a1.85,1.85,0,0,1-.87.69,2.12,2.12,0,0,1-.81.18s-.13,0-.15,0-.32,0-.36,0-.11.09-.21.05a.18.18,0,0,1-.1-.15A5.59,5.59,0,0,0,2106,433.72Zm.94-5.91c.12.06.24.16.37.22a1.13,1.13,0,0,1,.32.18c.3.15.45.13.72.26l.6.31c.43.2.49.2.94.4.27.13.54-.09.71,0s.13.14.18.18a1.28,1.28,0,0,1,.42.73c0,.14,0,.19-.22.11s-.28-.18-.4-.24a13.79,13.79,0,0,1-1.43-.62c-.28-.14-.53-.14-.8-.27a5.17,5.17,0,0,0-1.07-.36c-.25-.08-.16-.38-.29-.59s-.15-.17-.15-.27S2106.89,427.79,2106.94,427.81Z" transform="translate(-1951.35 -78)"/><path class="cls-8" d="M2121.41,281.34" transform="translate(-1951.35 -78)"/><polygon class="cls-7" points="145.05 254.57 0.59 197.86 25.33 171.05 170.06 227.87 145.05 254.57"/><polygon class="cls-6" points="145.05 123.11 145.05 183.08 0.55 126.24 0.6 66.83 145.05 123.11"/><polygon class="cls-1" points="0.6 85.12 0.55 109.46 145.05 166.29 145.05 141.06 0.6 85.12"/><polygon class="cls-7" points="145.05 234.87 0.54 178.67 0.55 126.24 145.05 183.08 145.05 234.87"/><polygon class="cls-7" points="145.05 123.11 0.6 66.83 25.34 40.11 170.06 96.41 145.05 123.11"/><path class="cls-6" d="M2028.81,322.57l.6.24a4,4,0,0,0,1.17.3s0-.11,0-.11,0-.21,0-.26l-.21-3.49s-.16-.3-.28-.35-.33-.06-.37-.08c-.78-.23-1.32-.43-2-.71-.29-.1-.21.52-.21.67.08.4.62.72.62,1.09,0,.12,0,.23,0,.35s.25.34.25.55-.49.8-.86.66c-.74-.28-.58-1.45-.62-1.92s-.08-.95-.2-1.49c-.06-.23-.66-.49-.9-.58-.62-.23-1-.3-1.81-.62-.16-.06-.27-.45-.43-.53-.45-.27-.58-.89-1-1.07-.26-.1-.24.67-.24,1.2,0,.06.06.58.06.64v.08s-.06.26-.06.35.06.31.06.39c0,.24-.08.4-.08.62s0,.52,0,.77c0,.66-.06,1.21-.62,1.47a1.64,1.64,0,0,1-.86-1c0-.22.06-.67.06-2.07,0-.08.06-.3.06-.34,0-.34-.08-.88-.06-1.15s.06-1.52.06-1.7c.09,0-.06-.15-.06-.4a.17.17,0,0,1,.06-.16c0-.41-.06-.8-.06-1.19a.56.56,0,0,1,.13-.32c0-.06-.07-.52-.07-.58,0-.86.13-2.31-.24-2.45s-.78-.21-1.52-.49c-.49-.18-1.21-.68-1.21-1.27,0,0,.08-.26.2-.21.52.23,1,.5,1.6.72.31.12.62.15,1,.29.18-.06.18-.59.18-.79,0-1.15-.12-2-.12-3.33,0-.12-.12-.83-.12-1,.06-.47-.56-1.13-.56-1.36l.37.18c.06,0,.74.52.8.55s.41.23.49.31c.19.35,1.2,1.39,1.2,1.43,0,.8-.72.57-.72,1.12,0,.08,0,.19,0,.3a22.87,22.87,0,0,0-.15,2.51c0,.43.06.66.45.8.56.21.8-.19,1.24,0s.49.64.61.93c.12,0,.27-.11.31-.21a2.72,2.72,0,0,0-.12-1.16c.08-.13.12-.11.32,0,.41.16.74.71,1.28,1.46a3.52,3.52,0,0,0,1.08.6c.21.07.39.12.39,0,0-1.89-.26-1.72-.49-2-.82-.31-1.5-.48-2.26-.76s-1-.9-1.62-1.56c0-.06,0-.05.06-.1.44.17,1.17.57,2,.87a5.12,5.12,0,0,1,1.36.59c.74.25,1.35.67,1.35-.19a12.49,12.49,0,0,0-.16-2.2c0-.63-.58-.91-.58-1.16s.13-.07.25,0c.31.12.55.38.82.43a6.78,6.78,0,0,0,1.19.78c.33.12.62.6.86.69.76.29,2.13,1.25,2.13,2.2a.83.83,0,0,1-1.1.69c-.5-.19-.25-1.94-1.15-2.28-.8-.05-.78.67-.78,1.76,0,.41.74.69,1.15.84,0,0,1.27.44,2,.7.16.06.8-.17.86-.13s.29-.18.37-.15c.55.07,1.6,1.75,1.6,1.88s0,.2-.13.2c-1.92-.73-2.27-.65-3-.91-.18-.21-.68-.25-.74-.4l-1.68-.63a.32.32,0,0,0-.41.18v1s0,.25.12.29l1.73.65c.49-.08.51-.57.78-.94.34.09.45.34.69.59s.91.59.91,1.12-.29.55-.29,1.08.12,1.11.12,1.77a1.31,1.31,0,0,1-.12.69v1.05a.26.26,0,0,0-.08.23c0,.29-.13.31-.29.43a6.55,6.55,0,0,1-1.31-1.42c-.25-.09-.41-.15-.41.1s.24.46.41.64c1,1,.14,1.41,1.15,1.79l.65.24a1.76,1.76,0,0,1,1.11-.32,4.73,4.73,0,0,1,1.35,1.8c0,.25-.08.3-.37.17a10.54,10.54,0,0,1-1.17-.5l-.26-.1-1.73-.46c-.16-.06-.28.14-.28.26,0,1.41-.08,3.76-.08,4,0,.07-.21.37-.25.48s-.88.65-1.48.43a3.2,3.2,0,0,1-.61-1.05c0-.78-.64-.83-1-1.4C2028.77,322.55,2028.79,322.6,2028.81,322.57Zm-7.38-8.27a.16.16,0,0,0,.06.08s0,0,0-.05a.07.07,0,0,0,0-.07A0,0,0,0,0,2021.43,314.3Zm5.54,2.94c.24.09.37-.05.61,0a1.57,1.57,0,0,1,.25.16c.31.11.37,0,.37-.11s-.29-.48-.37-.75c0-1.17.2-1.71-1-2.17l-.08-.09c-.2-.08-.41.07-.66-.07s-.2,1-.36,1.22c-.09.09-.21.35-.46.26a4,4,0,0,1-.73-.83c0-1.29.08-1.28.08-1.76a2.5,2.5,0,0,1,0-.74,5.62,5.62,0,0,0-.12-1.89c-.19-.07-.19.3-.5.18-.12,0-.06-.31-.18-.35s-.19,0-.25,0l-1.35-.39-.12.08c0,.32.06,3.67.06,4.14,0,.68.9,1.08,1.35,1.31a12.44,12.44,0,0,0,2.3,1c.12,0,.78.41.9.46A2.73,2.73,0,0,0,2027,317.24Zm-3.49-1.23s0,0,0,.06,0,0,0,0,0-.08,0-.1S2023.48,316,2023.48,316Zm2.75-4.24c.12.05,1.44.56,1.44.29l0-.51c0-.1-.07-.35-.25-.42-1.52-.57-1.48-.6-1.48.06A.84.84,0,0,0,2026.23,311.77Zm1.11,1-1-.38a.28.28,0,0,0-.33.2v.74c0,.27.54.51,1.07.71s.53.16.78-.14C2027.77,313.68,2027.77,313,2027.34,312.8Zm2.29,5.25c.39.21.74.08.74-.21,0-.66.13-2-.49-2.28-.16-.06-.49-.12-.57,0,0,.39,0,.81,0,1.28a.71.71,0,0,0-.49.55C2028.77,317.73,2029.47,318,2029.63,318.05Zm0-5c.09,0,2.22,1.08,2.22.34,0-.29-.14-.73-.49-.8l-.54-.16c-.65-.25-1.43-.7-1.56-.13A.79.79,0,0,0,2029.63,313Zm-.37,1.46c0,.41.78.6,1.07.71s1.27.54,1.27-.08c0-.08,0-.71-.12-.74l-2-.74-.25.15Z" transform="translate(-1951.35 -78)"/><path class="cls-6" d="M2038,321.38c0-.19.58-.18.58-.47.2-.23.53-.31.65-.55.52-.3.64-.48,1-.67a.2.2,0,0,0,.08.12h.1a.7.7,0,0,1-.06-.27,3.11,3.11,0,0,1,.43-.45c.62-.28.52-.69.93-1,.43,0,.39-.44.55-.69a4.8,4.8,0,0,0,.49-.64c.19-.32.19-.64.37-.84,0,0,.19-.18.19-.22.3-.44.37-1.21.74-1.59-.13-.08.18-.3.18-.73a2.19,2.19,0,0,0,.19-1.16c0-.43-.31-.73-.31-1s.37-.1.55,0,.27.06.37.2a.47.47,0,0,0,.25,0,5,5,0,0,1,2,2.58c0,.31-.54.35-.74.4a2.1,2.1,0,0,0-.54.35c-.2.17-.24.46-.57.53a1,1,0,0,0-.17-.13c0,.19,0,.2,0,.26,0,.48-.5.64-.5,1s.48.89.7,1.16a3.72,3.72,0,0,1-.12,1.06c-.13.35-.06.6-.21.91,0,0,0,0,.08.24v.9l-.12.22c0,.74.06,1.81-.2,1.71s-.37-.41-.56-.64a1,1,0,0,0-.3.13.3.3,0,0,1-.13-.11v-.86l.13-.08-.13-.17v-.32a15.07,15.07,0,0,0-.12-1.53c0-.22.08-1-.31-1.1s-.43.42-.61.51a2.32,2.32,0,0,1-.56.37l-.12-.05c0,.12,0,.43-.19.36l-.06,0c-.18.3-.37.37-.61.59s-.25.34-.43.45c0,0-.93.8-1.48,1.17-.31-.14-.29.3-.49.24,0,.27-.31.18-.45.27-.25.25-.58.29-.86.47-.25,0-.29-.15-.29-.35C2037.49,321.68,2038,321.5,2038,321.38Zm1.5-.49s0,.06.06.09,0,0,0-.06,0-.06,0-.07S2039.48,320.85,2039.48,320.89Zm.84-.93s0,0,0,0,.06,0,.06,0S2040.32,319.94,2040.32,320Zm.27,0s0,0,.06,0,0,0,0,0,0,0,0,0A0,0,0,0,0,2040.59,320Zm2.65-3.62.06,0s.06,0,.06-.1Zm.49,9.31.06-.1v-2.83c0-.07.06-.17.12-.14a5,5,0,0,0,.5.37c.24.13.26,0,.49.06l.12.48v1.41a.77.77,0,0,0-.1.41c0,1.21.22,2,.22,3.08,0,.08,0,.19,0,.31s0,.13,0,.14c0,.6,0,.86-.43,1l-.08-.05a.12.12,0,0,0-.16.12c-.5-.18-.87-1.41-.87-2C2043.6,327.71,2043.67,325.76,2043.73,325.69Zm.26-5.22s0,0,0,0,0,0,0,0,0,0,0-.05S2044,320.45,2044,320.47Zm.13,8s0,0,0,.05,0,0,0,0,0-.08,0-.09S2044.12,328.4,2044.12,328.46Zm.12-8.08s0,0,0,0,0,0,0,0,0-.06,0-.06S2044.24,320.34,2044.24,320.38Zm.35-1.08v-.08l-.06,0Zm.18,4.36s0,0,.06,0,.05,0,.05,0,0-.05-.05-.06A0,0,0,0,0,2044.77,323.66Zm.45-11.25s0,0,0,0h0a.07.07,0,0,0,.06.08s0,0,0-.05,0-.06,0-.07h0a.14.14,0,0,0-.06-.08S2045.22,312.34,2045.22,312.41Zm.07.06s0,0,0,0v0S2045.29,312.43,2045.29,312.47Zm0,1.6a.07.07,0,0,0,.06.08s0,0,0,0,0-.06,0-.07S2045.29,314,2045.29,314.07Zm.06-2a.14.14,0,0,0,0,0h.06a.09.09,0,0,0-.06-.06S2045.35,312.08,2045.35,312.1Zm7.44,16.87a2.29,2.29,0,0,1-.92-.14c-1.07-.26-2.52-1.05-3.4-1-1-.37-.89-.16-1.85-.53a4.07,4.07,0,0,1-.78-1.31c-.12-.38.35-.2.62-.1s.49.31.78.41.43,0,.57,0l.25.15c.1.12.47.05.65.12.49.19.86.26,1.38.46.67.19,1.35.51,2,.7.3.11.61.11.92.22,0,0,.08.07.12.11a2.77,2.77,0,0,1,.87.26c.06,0,.18-.11.24-.09l.06,0c.06,0,.43-.08.5-.06.24-.24.63-.15,1,0a11,11,0,0,1,1.72,2.83c0,.28-.16.43-.49.3a19.56,19.56,0,0,1-1.89-1.16l-.51-.19c-.06,0-.74-.4-.8-.42l-1-.44Zm-4.73-11.44.12,0c.84.32,2,.59,2.77.88h.24c0-.05.17.14.43.24.6.08,1.17.42,1.79.47.41.05.72-.35,1.17-.18a5.44,5.44,0,0,1,.63.73c.05.08.39.58.48.67s.51.58.51.93-.37.32-.62.22c-.1,0-.75-.4-1.12-.54-.58-.22-1.11-.54-1.67-.75-.24-.09-.43-.12-.61-.19s-.43-.2-.68-.3c-.8-.3-1.8-.55-2.09-.66l-.86-.32c-.08,0-.37,0-.45-.05-.35-.13-.72-.23-1-.33-.49-.18-.41-.32-.61-.76a.8.8,0,0,1-.13-.38C2046.37,317.06,2046.89,317.09,2048.06,317.53Zm2.27,10.06s0,.06.06.07,0,0,0,0,0-.09,0-.1S2050.33,327.53,2050.33,327.59Zm0,.45.06,0-.06,0Z" transform="translate(-1951.35 -78)"/><path class="cls-6" d="M2059.44,334.19c.25.09.49.31.66.37.33.12.57.09.82.19s.8.34,1.17.48c0,0,.94.23,1.41.4l2.65,1,.57.09c.17.06.17-.33.17-.31-.15-.15-.17-.74-.17-1.78a3.26,3.26,0,0,0-.49-.23c-.8-.3-1.44-.41-2.17-.69l-.31-.12a.49.49,0,0,1-.25,0c-.37-.14-1-1.29-1-1.35s0-.12.18-.06l1.91.72a1.46,1.46,0,0,0,.43.22c.25.1.43,0,.7.14s.68.46,1,.57c0-.06.13-.38.13-.44s0-.51,0-.76a.83.83,0,0,0,.16-.37,1.2,1.2,0,0,1-.25-.89c0-.26.52-.05.82.06,0,0,.17-.06.25,0s-.18-.25-.25-.4c-.45-.17-1-.37-1-.13,0,0,0,.13,0,.15s0,0-.08,0l-.91-.34-.14.07c-.12,1.37,0,1-1,1.17-.25-.09-.56-.51-.68-.68v-.49c.08-.08,0-.68.19-.8v-.74c.06,0,.24,0,.24-.15s-.24-.21-.31-.36a3.34,3.34,0,0,0-.06-.76,1.46,1.46,0,0,1-.12-.44c0-.28.31-.13.49-.06l-.12-.41c-.17,0-.74-.65-.74-.94,0-.08,0-.12.12-.16.68.26,1.19.82,1.91,1.09.25.09.37.16.49.14a7.2,7.2,0,0,0,1.11.46s2.42.87,2.42.66.86-.82,1.05-.75a14.48,14.48,0,0,1,1.9,2.19c0,.05-.2.35-.49.43-.51-.07-.12.63-.43.82a14,14,0,0,0,.25,1.76c0,.28,0,.36-.25.27s-.31-.17-.49-.24-.29.55-.49.67l.06.09a1,1,0,0,1,.43.1c0,.24-.37.11-.49.12.08,0-1.13-.07-1.13.32s.61.6.82.67a1.5,1.5,0,0,0,.8.06c.31-.07.43-.52.86-.36.25.1.25.28.43.41s.41.32.56.52.41.34.3.54.43.35.43.47V337c0,.08-.43,0-.49.06l-.68-.25c-.12-.05-.8-.47-.92-.52l-.68-.25c-.3-.11-.67-.38-.86-.45s-.92-.22-1,.13v1.47a1.28,1.28,0,0,0,.78.79c.08,0,.24,0,.33,0a4.27,4.27,0,0,0,1.16.52c.74.15,1.17-.5,2-.2.37.13.62.56.87.81.61.5,1.56,1.33,1.56,2.15,0,.28-.76.37-1,.3a6,6,0,0,1-.8-.47,5.58,5.58,0,0,1-1.35-.83c-1.81-.68-2-.86-3.2-1.33l-.09-.07-.77-.29a.45.45,0,0,0-.21-.28c-.14-.12,0,.19-.29.09s-.2-.4-.45-.49-.24.27-.49.26c-1-.38-1.76-.54-2.65-.87-.18-.07-.24-.17-.43-.24-.53-.2-.61,0-1-.15-.06,0-.19-.07-.19-.11v-.37c0-.08-.12-.13-.18-.15-.31-.12-.06.47-.31.46a3.07,3.07,0,0,0-.62-.19s-.24-.07-.24-.14.06-.22.06-.34a.43.43,0,0,0-.25-.34c-.41-.15-.3.75-.61.63s-.49-1-.62-1.22-.69-.63-.69-.87S2059.32,334.14,2059.44,334.19Zm.53-9.42c.15-.44.09-.95.58-1.09a3.79,3.79,0,0,0-.08-.4,4.48,4.48,0,0,1,.26-1c0-.06,0-.19,0-.3s0-.3.15-.31c.61.52.43,1.06,1.17,1.34.12.05.24,0,.36.06a4.75,4.75,0,0,0,.8.5c.23-.12.5.08.5-.18a1.14,1.14,0,0,1-.25-.67,1.92,1.92,0,0,1,.06-.3c0-.06-.24-.36-.24-.51,0-.57-.25-1.16-.25-1.81l.18.07.68.91a5,5,0,0,1,1.11,1.36c0,.16.31.48.43.69a3.17,3.17,0,0,1,.12.75,2.49,2.49,0,0,0,.74.85c.12,0,.12-.28.12-.33,0-.32-.12-.7-.12-1,0-.1,0-.22.21-.12a1.06,1.06,0,0,0,.24.46l.62.23s.22-.08.16-.18-.28,0-.41-.08-.12,0-.2-.2c0-.47-.25-1-.25-1.65,0-.12,0-.92,0-1,0-.87-1.07-1.18-1.07-1.51,0-.08,0-.12.13-.16H2067l.12,0c0,.19.66.37,1,.58s1,.82,1,1.15-.37.27-.37.43c0,.35-.2.62-.2.79a3.41,3.41,0,0,1,.24,1.11c0,.45,0,.85,0,1.3,0,0,0,.12,0,.14a.3.3,0,0,0,.33-.12l.49.18a2.52,2.52,0,0,0,.13-.4c.12-.25,1-.95,1-1.73,0-.37-.37-.79-.61-1.09,0-.08,0-.15.12-.2,1,.38,1.13.71,1.72,1.51.25.09.49.64.56.66,0,.33.49.76.49,1.17s-.62.26-.93.14c-.59-.22-.22-.33-.49-.43s-.31,0-.31.13v.17c0,.08-.06.34-.3.25l-.06,0-.64-.28c-.25-.14-.23.28-.49.35s-.29,0-.41.05-.25.17-.25.27.25.3.41.36a.63.63,0,0,0,.37.06l1.37.52h.13a3.33,3.33,0,0,1,.8.42c.1.12.31-.09.61,0l.8.3c0-.14.23-.28.37-.23a9.64,9.64,0,0,1,1,.94,4.14,4.14,0,0,1,1.31,1.48c0,.71.49.6.49,1.05,0,.29-.24.19-.45.12,0,0-.53-.08-.65-.13-.29-.11-.46.08-.7,0-.06,0-.74-.2-.8-.22s-.43.08-.49.06-.15-.16-.19-.27a2.49,2.49,0,0,0,.43-1.61c0-.28-.74-.5-.68-.58a10.63,10.63,0,0,1-1-.27c-.19-.07-.25-.21-.43-.28a.75.75,0,0,0-.43-.08l-1.44-.54s-.37,0-.41,0a5,5,0,0,0-.61-.32,12.67,12.67,0,0,1-1.81-.47c-.43-.16-1-.12-1.11-.25l0-.14-.7-.26a.75.75,0,0,0-.24-.14c-.06,0-.43,0-.5,0a1.22,1.22,0,0,0-.55-.12c-.12,0-.53-.33-.61-.32a5.78,5.78,0,0,1-1.23-.25h-.13a8.81,8.81,0,0,0,.06,1c0,.15-.1,1.36-.49,1.41s-.41.1-.68.26c-.1.07-.32-.06-.55-.14s-.68-.3-.68-.59A2.19,2.19,0,0,1,2060,324.77Zm.58.75c.12.05.24.09.24-.07s0-.2-.18-.27-.27,0-.27.22S2060.47,325.49,2060.55,325.52Zm.43,10c0-.24-.25-.38-.37-.43v.17Zm1.19-12s0,0,0,.05a.12.12,0,0,0,0,.05s0,0,0,0S2062.19,323.57,2062.17,323.57Zm1,13,.19.07c0-.08,0-.12-.06-.14S2063.13,336.48,2063.13,336.56Zm.8-13.95c.08,0,.25,0,.25,0s-.06-.52-.25-.59-.24.28-.24.4S2063.93,322.63,2063.93,322.61Zm.7,4.67s0,0,0,0,0,0,0,0,0,0,0,0S2064.65,327.29,2064.63,327.28Zm0-4.52a.1.1,0,0,0,.06.07s0,0,0,0,0-.09,0-.09S2064.67,322.72,2064.67,322.76Zm.12,4.21s0,0,.07,0,0,0,0,0,0,0,0,0S2064.79,327,2064.79,327Zm2.79,3.61a.47.47,0,0,0,.25,0,7.23,7.23,0,0,0,.9.22c.11,0,.31.24.45.29a9.21,9.21,0,0,0,1,.5c-.21-.21-.21-.45-.33-.56s-.37-.18-.37-.38.12-.22.12-.33a4.26,4.26,0,0,1-.16-.61c0-.08.16-.43.16-.51a.39.39,0,0,0-.24-.38c-.49-.19-.86-.08-1.36-.27-.12-.08-.3-.23-.37-.26l-.16.06c-.2-.07-.37-.5-.57-.58,0,0,0,0,0,.11a1.74,1.74,0,0,0-.7-.14s-.29.14-.37.1-.35-.25-.43-.28-.06,0-.06.1c0,.29.12.58.12.91,0,.61,0,1.15.74,1.44.24.1.37.08.61.17A3.07,3.07,0,0,0,2067.58,330.58Zm-.49-5.35s.25.09.25,0a.59.59,0,0,0-.45-.45s-.17,0-.17.1S2066.89,325.15,2067.09,325.23Zm-.33-1.19h.09l-.09-.11Zm.46-1.8,0-.06-.13-.09,0,0C2067.13,322.19,2067.09,322.2,2067.22,322.24Zm.06,12.21s0,0,.06,0,0,0,0,0a0,0,0,0,0,0,0C2067.28,334.43,2067.28,334.45,2067.28,334.45Zm.49-1.07s0,0,.06.07,0,0,0,0,0-.08,0-.09S2067.77,333.32,2067.77,333.38Zm.06,1.07a.09.09,0,0,0,0,.08,0,0,0,0,0,.06,0,.12.12,0,0,0-.06-.09S2067.83,334.41,2067.83,334.45Zm.41-3.31a.16.16,0,0,0-.12-.17l-.17-.06C2068,331,2068.12,331.09,2068.24,331.14Zm-.29,2c.11,0,.15.08.25,0A.25.25,0,0,0,2068,333.12Zm.07,3.25s0,.06.06.08,0,0,0-.05,0-.07,0-.07S2068,336.32,2068,336.37Zm.22-12.35v-.12l0,.07Zm.08,10.43a.08.08,0,0,0,0,.06s.06,0,.06,0a.13.13,0,0,0-.06-.11S2068.32,334.39,2068.32,334.45Zm.74-2.2c-.1-.23.49.1.49-.19a.57.57,0,0,0-.24-.15c-.21-.08-.37,0-.37.11S2068.94,332.2,2069.06,332.25Zm.41.58c.12.05.37-.17.58-.15s.43.1.43-.15a.8.8,0,0,0-.27-.22c-.29-.11-.9,0-.9.27C2069.31,332.71,2069.31,332.77,2069.47,332.83Zm1.5,6.31.06,0v-.08l-.06,0Zm.7.32s0,.06,0,.08,0,0,0-.05,0-.06,0-.08S2071.67,339.42,2071.67,339.46Zm1,.42c.14.06.23.09.19-.13C2072.69,339.78,2072.63,339.76,2072.63,339.88Zm1.85-11.59.06,0v-.05Z" transform="translate(-1951.35 -78)"/><polygon class="cls-6" points="145.05 234.87 145.05 254.57 0.59 197.86 0.54 178.67 145.05 234.87"/><path class="cls-5" d="M2096.4,201.44" transform="translate(-1951.35 -78)"/><polygon class="cls-7" points="145.05 254.57 145.05 123.11 170.06 96.41 170.06 227.87 145.05 254.57"/><polygon class="cls-2" points="145.05 254.57 145.05 123.11 170.06 96.41 170.06 227.87 145.05 254.57"/><path class="cls-1" d="M2096.4,233.88" transform="translate(-1951.35 -78)"/><polygon class="cls-9" points="25.33 344.46 170.22 400.55 143.76 409.16 0 353 25.33 344.46"/></svg>