<svg id="圖層_3" data-name="圖層 3" xmlns="http://www.w3.org/2000/svg" viewBox="0 0 453.18 550.16"><defs><style>.cls-1{fill:#4d4d4d;}.cls-2{fill:#c69c6d;}.cls-3{fill:#a67c52;}.cls-4{fill:#754c24;}.cls-5{fill:#42210b;}.cls-6{fill:#603813;}.cls-7{fill:#8c6239;}.cls-8{fill:#e0a600;}.cls-9{fill:none;}</style></defs><title>layer_3</title><polygon class="cls-1" points="77.58 481.39 165.75 454.94 349.14 523.71 261.85 550.16 77.58 481.39"/><polygon class="cls-2" points="349.14 398.52 165.75 329.75 165.75 454.94 349.14 523.71 349.14 398.52"/><polygon class="cls-3" points="261.85 129 261.85 550.16 242.6 542.98 242.6 421.44 94.48 366.78 94.48 487.7 77.58 481.39 77.58 59.95 261.85 129"/><polygon class="cls-4" points="111.09 372.9 111.09 483.16 94.48 487.7 94.48 366.78 111.09 372.9"/><polygon class="cls-3" points="261.85 129 453.18 68.77 268.02 0 77.58 59.95 261.85 129"/><path class="cls-3" d="M1265.25,1094.67" transform="translate(-1000.75 -969.47)"/><polygon class="cls-2" points="148.12 324.45 137.54 327.98 137.54 285.66 148.12 282.13 148.12 324.45"/><polygon class="cls-4" points="148.12 282.13 148.12 324.45 195.73 342.09 195.73 299.77 148.12 282.13"/><polygon class="cls-5" points="185.15 303.3 195.73 299.77 148.12 282.13 137.54 285.66 185.15 303.3"/><polygon class="cls-2" points="153.41 352.67 153.41 326.22 142.83 329.75 153.41 352.67"/><polygon class="cls-2" points="186.91 365.01 186.91 338.56 176.33 342.09 186.91 365.01"/><polygon class="cls-6" points="148.12 324.45 195.73 342.09 185.15 345.62 137.54 327.98 148.12 324.45"/><polygon class="cls-7" points="185.15 345.62 195.73 342.09 195.73 299.77 185.15 303.3 185.15 345.62"/><polygon class="cls-7" points="261.85 399.94 261.85 129 77.58 59.95 77.58 329.75 261.85 399.94"/><polygon class="cls-8" points="153.41 130.49 102.27 111.09 102.27 176.33 153.41 195.73 153.41 130.49"/><polyline class="cls-8" points="183.38 206.31 234.52 225.71 234.52 162.23 183.38 142.83 183.38 208.07"/><polygon class="cls-8" points="183.38 322.69 234.52 342.09 234.52 278.61 183.38 259.21 183.38 294.48 183.38 322.69"/><polygon class="cls-8" points="153.41 246.87 102.27 227.47 102.27 290.95 153.41 312.11 153.41 246.87"/><polygon class="cls-7" points="274.1 495.58 322.27 513.64 322.27 423.68 274.1 406.02 274.1 495.58"/><polygon class="cls-4" points="261.85 550.16 261.85 129 453.18 68.77 453.18 490.21 349.14 523.71 349.14 398.52 349.14 398.52 280.66 421.44 280.66 544.47 261.85 550.16"/><polygon class="cls-8" points="261.85 241.86 453.18 181.62 453.18 151.65 261.85 209.5 261.85 241.86"/><polygon class="cls-8" points="261.85 301.81 453.18 241.58 453.18 211.6 261.85 271.83 261.85 301.81"/><polygon class="cls-8" points="261.85 361.76 453.18 301.53 453.18 271.56 261.85 331.79 261.85 361.76"/><polygon class="cls-8" points="349.14 424.21 349.14 453.18 349.14 454.19 453.18 421.44 453.18 391.46 349.14 424.21"/><polygon class="cls-8" points="280.66 446.04 261.85 451.68 261.85 481.67 280.66 475.75 280.66 446.04"/><polygon class="cls-8" points="261.85 421.72 453.18 361.49 453.18 331.51 261.85 391.74 261.85 421.72"/><polygon class="cls-7" points="0 374.71 0 291.83 77.59 265.38 77.59 348.26 0 374.71"/><polygon class="cls-9" points="0 374.71 77.59 348.26 93.46 353.55 15.87 380 0 374.71"/><polygon class="cls-2" points="15.87 380 0 374.71 0 291.83 15.87 297.12 15.87 380"/><polygon class="cls-9" points="93.46 353.55 77.59 348.26 77.59 265.38 93.46 270.67 93.46 353.55"/><polygon class="cls-3" points="77.59 265.38 0 291.83 15.87 297.12 93.46 270.67 77.59 265.38"/><polygon class="cls-1" points="77.59 481.67 0 508.12 15.87 513.41 93.46 486.96 77.59 481.67"/><polygon class="cls-4" points="15.87 297.12 15.87 380 93.46 353.55 93.46 270.67 15.87 297.12"/><path class="cls-8" d="M1026.62,1309.46c.52-.25.41-1,.58-1.42a2.7,2.7,0,0,0,.33-1.46,13.72,13.72,0,0,1,.45-1.45,5.61,5.61,0,0,1,.19-.92l.59-1.75a3.94,3.94,0,0,1,.39-1.12l.65-2.12a6.32,6.32,0,0,0,.39-1.11c-.11-.21.26-.5.26-.82-.13-.12.45-1.1.58-1.63,0-.09.27-.13.4-.17v.16c-.26.72-1.13,2.61-1.57,3.92,0,.25-.32.74-.32,1.15a11.48,11.48,0,0,0-.52,2s-.13.29-.13.33c-.15,1.28-.51,2.59-.64,3.86a4.45,4.45,0,0,0-.26,1.81c0,1.11.07,1,.07,1.47,0,.13.2.92.2,1,0,.62,0,1-.72,1.26-.57-.08-.92-.46-.92-1.42-.13-.37-1.18-.72-1.18-.9A4.84,4.84,0,0,1,1026.62,1309.46Zm-.78-9.86c.22-.07.49.09.66.09.83.14,1.66,0,1.66.89,0,.68,0,1.52-.84,1.82,0,0-.66.21-.72-.09a3,3,0,0,1-.14-.88c0-.06-.26-.47-.26-.53a4.14,4.14,0,0,0-.27-.77c0-.07-.21-.24-.21-.3v-.06C1025.71,1299.71,1025.8,1299.62,1025.84,1299.6Zm1.17-5.82c.22-.07.28.12.41.11.81.23,1,.42,1.06.89v.24c1.33-.44,1,.42,1.11,1,0,.08.13.28.13.32.14.31-.89.91-1.17,1.09-.72.24-.59-.54-.66-1a7.82,7.82,0,0,0-.88-2.54Zm10.27,8.29c-.33.11-1.35.51-1.35.73s.39.45.39.82a9,9,0,0,1-.87,1.51,3,3,0,0,1-1,1.43,9.12,9.12,0,0,1-1.79,2.08c-.72.65-1.44,1.34-2.22,2-.07,0-.46.48-.53.5a6.81,6.81,0,0,0-.58.36c-.14.08-.14,0-.14-.13s.79-.79,1.18-1.12c.07,0,.33-.44.39-.46.39-.37.57-.43.72-.6-.11,0,.59-.49.85-.82a18.44,18.44,0,0,0,1.5-2.17c0-.29,1.31-2,1.3-2.92,0-.24,0-.24-.26-.15-.11-.15-.52.56-.78.83a16,16,0,0,1-1.7,1.66c.06.09-.59.51-.79.76-.06,0-.39.43-.52.54-.46.43-1,.83-1.44,1.21,0,0-.19.08-.19,0,0-.24.32-.47.45-.64l.4-.5a9,9,0,0,0,1.24-1.58,15.3,15.3,0,0,0,2-3.49c.08-.22-.38-.33-.53-.28a16.52,16.52,0,0,0-2.16,1c-.52.27-.92-.4-1.24-.66l.06-.06c.94-.31,3.43-1,3.43-1.37s-.22-.49-.22-.75c0-.59.08-1.77.08-2.92,0-.37.16-3.13.16-3.5v-.18c0-.13,0-.27.13-.31.33-.11,1.18.32,1.53.48a13.63,13.63,0,0,0,3.47-1.43s1-1.52,1.37-1.65c.2-.06.33.1.53.16s.72,0,.72.38l-.07.18c.16.42-.52,1.16-.58,1.39s0,.78-.07.88v3.07a6,6,0,0,1-.13.84c0,.31-.26.6-.26.79l.2,0,1.25-.41c.32-.1.58-.56.78-.75a1.81,1.81,0,0,1,.78-.5c.29-.09.7.22,1.21.34,0,.26.57.2.57.51,0,.12-.18.22-.31.27-.39.12-.78.21-1.18.34s-.54.06-.87.17-.33.23-.52.29a.63.63,0,0,1-.4,0c-.85.28-1.52.59-2.29.84-.33.1-.59.11-.92.22s-.67.3-1,.42l-1.31.56-.61.2s-.53.29-.57.31-.13,0-.2,0l-.15.11c-.06.42.37.81.53,1a.66.66,0,0,0,.39.36,19.33,19.33,0,0,0,2.71-1.09,12.81,12.81,0,0,1,1.77-.75l.13-.13a9.87,9.87,0,0,0,1.11-.4c.41-.28.91-1.37,1.17-1.46.46-.15.4.84.66,1.35,0,0,.29.31.29.39.11.64-.52,1.2-.87,1.71-.41.93-.83,1.85-1.3,2.76a18.16,18.16,0,0,1-1.37,2.79c0,.08-.33.36-.33.44a5.59,5.59,0,0,1-.45.76c-.51.17-1.27,1.08-2,1.34-.18.05-.18-.19-.18-.32a1.36,1.36,0,0,1,0-.42c0-.44-.65-.6-.66-.89a1.67,1.67,0,0,0,.24-.06.53.53,0,0,0,.29-.2c.22-.07.46-.11.72-.19a2.27,2.27,0,0,0,1-.62c.11-.12.31-.49.46-.68-.09-.22.5-.64.52-1.12,0-.06.33-.66.33-.72,0-.37.47-1,.65-1.51l.39-1a2.88,2.88,0,0,0,.26-1.09l.06-.14c.07-.27-.22-.3-.46-.22a17.94,17.94,0,0,0-1.77.7.78.78,0,0,0-.19.56.76.76,0,0,1,.53.71c0,.86-.85,1.84-1.37,2.66-.74,1.19-1.24,2.63-2.7,3.81a18,18,0,0,1-1.7,1.58,10.27,10.27,0,0,1-1.11.94c-.46.28-.85.45-1.31.72a1.57,1.57,0,0,1-.85.53,2.29,2.29,0,0,1-.79.46l.07-.15a13.59,13.59,0,0,1,2-1.48c.32-.4.47-.37.84-.9.68-.14,1.09-1.22,1.6-1.38a4.34,4.34,0,0,0,.43-.68c.22-.32.48-.61.65-.91a15.38,15.38,0,0,1,1-1.64c.22-.19.13-.41.26-.64s.39-.62.61-1c0-.07.26-.64.3-.72a5.9,5.9,0,0,0,.87-2C1037.76,1301.85,1037.37,1302,1037.28,1302.07Zm-2.67-1.91c.26-.08.65-.25,1-.36.91-.38,1.79-.71,2.7-1.09l.2-.23c0-1.2-.18-1.25-.72-1.14-.33.07-.53.36-1.14.56-.92.3-2.2.6-2.36,1.15.07.35-.12.72-.12,1S1034.35,1300.25,1034.61,1300.16Zm0-4.42a8.37,8.37,0,0,0,2.41-1c.39-.13.5-.86.8-1,.13,0,.4.56.59.5a.63.63,0,0,0,.2-.13c0-.43.13-1,.13-1.41s-.18-.44-.57-.31c-.64.21-.77.38-1.16.51l-.44.14a10.88,10.88,0,0,1-1.39.67c-.31.14-.26.45-.44.67-.35.36-.48.41-.48.86C1034.24,1295.48,1034.25,1295.85,1034.59,1295.74Zm1.62,0c-.89.29-1.85.61-1.87,1v1c0,.08.31.21.83,0,.72-.24,1.4-.65,2.9-1.14.53-.18.52-.92.52-1.28,0-.62,0-.61-.92-.32S1036.74,1295.58,1036.21,1295.76Zm2.49,6.93s0,0,0,0,0,0,0,0,0,0,0,0A.05.05,0,0,0,1038.7,1302.69Zm.86-10.83.2-.06v-.13l-.2.07Z" transform="translate(-1000.75 -969.47)"/><path class="cls-8" d="M1049.24,1305.09c0-.39,1.35-.8,1.64-1.08.06,0,.52-.5.59-.52l.19-.1a7.84,7.84,0,0,0,.19-2.55l.07-.14c0-1.15.06-2.34,0-3.16,0-.31-.06-.61-.07-1,0-.25.07-.52.07-.76s-.14-1.39-.66-1.22a4.25,4.25,0,0,0-.92.88l-.45.43a18.35,18.35,0,0,1-2,1.91c0,.07-.56.43-.65.52-.44.39-.83,1-1.35,1.12-.13,0-.48.16-.48,0a.73.73,0,0,1,.08-.22,12,12,0,0,0,2.53-2.49c.28-.38.66-.44,1-1,.7-.76,1-1.16,1.51-1.85.74-.94,1-1.71,1.69-2.65,0-.26.79-.85.79-1.08v0c.17-.28.47-.53.52-.78,0-.09.32-.44.32-.48a4.68,4.68,0,0,1,.27-.46c0-.2.41-.5.41-.71a9.06,9.06,0,0,0,.52-1.93c0-.33-.22-.5-.22-.75a.73.73,0,0,1,.21-.44,2.92,2.92,0,0,1,1.23-.16c.08,0,.26.16.35.13.39.2,1.7.39,1.7.92,0,.2-.08.4-.08.6a1,1,0,0,0,.13.37,3,3,0,0,0,1.75,1.68c.55,0,.48.27.79.35s.44,0,.65.07a.67.67,0,0,0,.79.2c-.06-.15.53.31.92.19,1.22-.41.92-.14,1.22-.12.09,0,.75,0,.81-.06s.59,0,1.05,0c.28-.09,1.77-.64,1.77-.05,0,.33-1.24.78-1.44.93s-.46.4-.65.58-.46.65-.85.77-.72-.09-1.12-.12c.2.1-1.13-.16-1.83-.22a1.44,1.44,0,0,1-1.14-.28c0-.31-.42-.48-.42-.6s0-.07,0-.09,0,0,0,0c-.35-.13-.52-.56-1-.4,0,.18,0,.38,0,.54s0,.5-.24.57a1,1,0,0,1-.18,0,5.47,5.47,0,0,1-1.17.51l-.44.15a1.14,1.14,0,0,0-.48.24l-1.7.56a.65.65,0,0,1-.75-.37,1.43,1.43,0,0,1,.61-.41l2.23-.73.13,0c.18-.12.61-.78,1.09-.94,0,0,.09.06.13,0v-.2l.48-.16s.09-.4.09-.44c-.33-.49-.77-.85-1.14-1.31,0-.22-.51-.65-.75-.57,0,0-.52.38-.56.39-.48.3-.76,1.11-1,1.37-.11.08-.78,1-1.17,1.45,0,.33-1.14,1.4-1.07,1.34-.11.36-1.5,1.52-1.5,2.09,0,.21,0,.24.06.23a10.07,10.07,0,0,0,1.05-.22c0,.2.94.06,1.38-.09.22-.07.39-.25.61-.32s.31,0,.57-.11.61-.32,1-.45l.26,0c.13,0,.18-.14.31-.19s.22,0,.35,0,.26-.21.39-.25.37-.21.57-.27a1.45,1.45,0,0,0,1-.7c.26-.07.37-.27.61-.49.18-.06,1.71-.11,1.71.71,0,.37-.48.45-.48,1.23s0,1.44,0,2.53c-.08.34-.48.47-.74.68l-3.1,1c0,.2-.83.33-.82.58s.28.6.3.76c.46.15.79.91,1.45.69a6.92,6.92,0,0,0,1.35-1.12c.09-.38.48-.53.78-.81a3.48,3.48,0,0,0,.66-1c-.14,0,.43-.29.56-.49.74-.08,1.27,1,1.27,1.32s-1,.43-1.57.93c-.19,0-.52.5-1,.67s-.92.43-1.18.88c0,.06.26.26.39.28-.06.11.46.06,1.23.3.61-.2.63.28,1.66-.06a7.59,7.59,0,0,1,1.31-.14,5,5,0,0,1,1.11,0c.11-.12.11-.12.33-.19.06,0,.33,0,.39,0s.29-.21.39-.25l.42-.14a.48.48,0,0,1,.37,0c.2.28-1.42,1.06-1.7,1.29-.07,0-.46.4-.52.42-1.18.39-.9,1.24-1.79,1.53-.17.06-.44-.06-.66-.11s-.83,0-.91-.19a2.86,2.86,0,0,1-1.32-.3,2.56,2.56,0,0,1-.7-.18c-.24-.11-.46-.41-.61-.38-.3.1-.68-.2-1-.4-.27,0-.73-.38-1.1-.26s-.48.49-.65.67c-1.35,1.34-2.59,2.84-3.88,4.27-.32.35-.54,1-1,1.14s-.91.06-1-.29C1049.92,1305.74,1049.24,1305.52,1049.24,1305.09Zm4.84-3.49c.42-.13.66-.58,1.11-.73.35-.5,1.53-.85,1.53-1.57,0-.43-.09-.69-.09-1.26,0-.06-.18-.37-.18-.44s-.3-.26-.48-.21a5.72,5.72,0,0,1-1,.5c-1.44.48-1.2.67-1.2,1.44a15.56,15.56,0,0,1-.12,1.67C1053.69,1301.24,1053.75,1301.71,1054.08,1301.6Zm.18-6.29c1.16-.38,1.16-.44,1.53-.56,0-.09.22,0,.3,0,.75-.25,1.44-.6,2.1-.82.26-.08.63-.14.65-.09.62-.1.83-.93.83-1.32s-.18-.51-1-.26c0,0-.31.19-.39.22-.66.25-1.31.55-2,.77-.13,0-.17,0-.26,0s-.35.2-.44.23c-.87.28-1.42.24-1.92,1.37C1053.74,1295.34,1054,1295.25,1054.26,1295.31Zm.88,1.86c.44-.14.79-.38,1.18-.51s.57-.12.91-.24c.18-.05.4-.19.66-.27a2.23,2.23,0,0,0,.26,0,2.18,2.18,0,0,0,.57-.31c1-.32.61-.51.83-.89.06-.63,0-.8-.44-.84-.57.19-2.19.84-2.4.92-.4.13-.75.18-1.14.31a5.7,5.7,0,0,0-1.57.7c-.09,0-.19.54-.19.62,0,.38-.11.67.19.86C1054.48,1297.33,1054.75,1297.3,1055.14,1297.17Z" transform="translate(-1000.75 -969.47)"/><path class="cls-8" d="M1068.63,1299h.09c0,.08-.22.28-.35.32l0-.07C1068.32,1299.13,1068.5,1299.07,1068.63,1299Zm10.22-7.35c0-.26,0-.66-.39-.52a7.23,7.23,0,0,0-1.22,1.18c-.26.33-.87.71-.79.79a10.22,10.22,0,0,0-1.72,1.55c-.35.11-.56.56-.78.63a12.77,12.77,0,0,0-1.37,1.19c-.4.29-1,.4-1.31.84a8.2,8.2,0,0,1-2,1.36v-.08a12,12,0,0,0,1-.85c.39-.35.74-.57,1.13-.94a4.85,4.85,0,0,1,.46-.52c.13-.09.65-.51.78-.63l1.18-1.5c.06,0,.26-.25.33-.27.43-.39.61-.79,1-1.14.39-.5,1.59-1.84,1.69-2,.07.08.26-.49.4-.66s.91-1.28,1-1.44.17-.42.26-.57,0-.33-.22-.26c-.53.17-.66.79-1,1.14a7.45,7.45,0,0,1-.79.5,15.61,15.61,0,0,1-1.39,1.44,8.2,8.2,0,0,1-.59.61,7.51,7.51,0,0,0-1.5,1.23l-.2.07c-.19.14-1,.81-1.18,1a16.65,16.65,0,0,1-1.52,1,31.42,31.42,0,0,1,2.77-2.59c.91-.92,1.69-1.93,2.54-3,.55-.67,1-1.1,1.59-1.9.18-.24.57-.43.57-.8,0-.06-.18-.07-.26,0-.42.14-.57.74-1,.9,0,0-.33.35-.39.38a8.35,8.35,0,0,0-1.25,1c-.39.54-.95.68-1.43,1a7.43,7.43,0,0,1-1.77,1.19c0-.39,1.66-1.69,2.09-2.08.48-.57,1.2-1.09,1.77-1.71-.09,0,1.26-1.24,1.89-2l.07,0a.5.5,0,0,0,.32-.48s0-.12,0-.11c-1.2.4-2.07.87-3.36,1.3-.2-.12-.46-.28-.46-.59a7.12,7.12,0,0,0,1.31-.49c.35-.14,1-.29,1.46-.42s.44-.33.79-.45l.78-.26.39-.19a1.09,1.09,0,0,0,.4-.06,3.75,3.75,0,0,1,.39-.26c.46-.15,1.22-.52,1.61-.65,1.12-.45,2.12-.82,3.23-1.19a.93.93,0,0,0,.4.06c.41-.14.59-.32,1-.45s.39.3.39.55c0,0,0,.31-.19.37l-2.16.71a3.28,3.28,0,0,0-.92.12,10.28,10.28,0,0,1-1.77.64c-.37.12-1,.19-1,1,0,.06-.3.34-.3.41-.11.71.43.53.44,1.08a3.94,3.94,0,0,1,.39,1.8,11.05,11.05,0,0,1,.23,1.52v.25l.13.2c0,.52,0,1.12,0,1.22s-.13.9-.13,1a8,8,0,0,1-.3,2.39s-.22.44-.22.48-.3.43-.3.47a5.67,5.67,0,0,1-1.79,2.15c-.81.33-.37-.55-.79-.81,0-.23-1-.26-1-.54C1079,1294.92,1078.49,1294,1078.85,1291.68Zm-7.09-6.71c.15-.87.71-2.3.71-2.69l.06-.11c.24-.24.42.93.92.77a4.61,4.61,0,0,0,1.71-.77h.26a14,14,0,0,0,1.44-.56c.74-.24,1.92-.45,1.92-1.41v-2.09c0-.37-.48-.17-.48-.42,0,0,0-.12.13-.2.68-.23.94-.64,1.53-.83,0,0,.26,0,.3,0,.66-.22,1.46-.42,1.47,0a8.89,8.89,0,0,1-.72,1.79c0,.52-.35.79-.35,1.1s.09.59.49.58a3.13,3.13,0,0,0,.78-.46c.92-.3,1.42-.71,2-.89.06,0,.39,0,.45,0l.92-.35.07,0c.06,0,.19,0,.19.1-.65.85-2.61,1.36-4.51,2-.09,0-.22.16-.26.17a2.33,2.33,0,0,0-.66.26c-.74.32-1.57.6-2.31.84l-.13.08c-.27.09-1.31.56-1.58.65-.06,0-.58.31-.65.33-.57.19-1.33.4-1.44.68s-.26.44-.26.76c-.33.4-.28.67-.46,1-.69.55-.69,1-1.3,1.17a.9.9,0,0,1-.59-.73A1.81,1.81,0,0,1,1071.76,1285Zm6.26,5.22s0,0,0,0,.07,0,.07-.06-.05-.07-.07-.06S1078,1290.15,1078,1290.19Zm3.26-5.34-.13.05c0-.07,0-.13,0-.14S1081.28,1284.79,1081.28,1284.85Zm1.25,2.13c.59-.19.85-1.1,1.37-1.76a1.94,1.94,0,0,0,.33-.79c0-.18-.13-.26-.13-.51s.06-.51.26-.57.26,0,.52.07c.26-.13.46.22.66.15.35.18.44,0,.59.55a5.48,5.48,0,0,1-.85,1.26c-.22.07-.41.42-.59.44s-.26.42-.32.44l-.13.08c-.27.21-1.31,1.17-1.31,1.5,0,.65,2.17,1.66,2.76,1.8a10.13,10.13,0,0,0,2.18.22c.18,0,1.22-.24,1.23,0a11.32,11.32,0,0,1-1.44,1.33c-.05.1-.57.44-.66.55-.32.27-.54.73-1,.87a5.69,5.69,0,0,1-2.56-1.74s-.33-.26-.33-.3c0-.35-.6-.95-.86-1.4,0-.08-.26-.36-.26-.4s-.13-.58-.14-.66a2.67,2.67,0,0,1-.19-.71,9.4,9.4,0,0,1-.34-2C1081.94,1285.19,1081.88,1287.2,1082.53,1287Zm6-9.58c0,.39-1,.56-1.35,1.26a5.63,5.63,0,0,0-1.06,1l-.27.09c0-.15.07-.91.07-1s.13-.45.13-.53c0-.23,0-.8.32-.89C1087,1277.12,1088.38,1277.08,1088.53,1277.4Z" transform="translate(-1000.75 -969.47)"/></svg>